<svg xmlns="http://www.w3.org/2000/svg" xmlns:xlink="http://www.w3.org/1999/xlink" width="287" height="288.433" viewBox="0 0 287 288.433"><defs><linearGradient id="a" x1="5.913" y1="20.344" x2="5.919" y2="20.344" gradientUnits="objectBoundingBox"><stop offset="0" stop-color="#e1e1e1"/><stop offset="1" stop-color="#b8a379"/></linearGradient><clipPath id="b"><path d="M-885.495,1440.276s-118.94,204.4-128.387,220.611h85.726s9.78-16.878,26.952-46.425c10.5,17.787,25.106,42.484,27.432,46.468h28.606c-11.457-19.506-30.052-51.072-41.784-70.99,12.484-21.468,27.429-47.141,44.318-76.128,5.939,10.2,65.817,112.2,71.884,122.609h-28.576c-3.468-5.956-39.825-67.609-43.309-73.579l-14.287,24.508c3.474,5.959,39.824,67.608,43.31,73.58h85.727c-.149-.253-112.349-192.028-114.75-196.137-36.472,62.58-60.237,103.687-99.814,171.587h-28.575s108.989-187.327,114.1-196.1Z" transform="translate(1013.882 -1440.276)" fill="url(#a)"/></clipPath></defs><g transform="translate(-1018 -283.924)"><g transform="translate(1018 283.924)" opacity="0.3"><g clip-path="url(#b)"><path d="M0,0,355.6,1.7l1.715,359.8-355.6-1.7Z" transform="translate(-110.959 119.996) rotate(-47.514)" fill="url(#a)"/></g></g><g transform="translate(1018 543.914)"><path d="M-804.6,1496.994l-2.99-6.79H-818.04l-3.062,6.79h-4.5l12.77-27.414,12.752,27.414Zm-11.852-10.356h7.349l-2.7-6.016q-.235-.576-.486-1.324t-.5-1.665q-.215.864-.459,1.612t-.495,1.378Z" transform="translate(825.605 -1469.579)" fill="#efefef"/><path d="M-753.564,1486.006v11.8h-4.017v-26.37h5.98a18.763,18.763,0,0,1,4.08.342,6.4,6.4,0,0,1,2.476,1.135,6.275,6.275,0,0,1,1.891,2.467,8.131,8.131,0,0,1,.667,3.315,7.4,7.4,0,0,1-1.531,4.962,6.737,6.737,0,0,1-4.521,2.152l9.078,12h-4.845l-8.773-11.8Zm.27-3.333h.775q3.4,0,4.521-.793a3.215,3.215,0,0,0,1.117-2.809,3.59,3.59,0,0,0-1.2-3.072q-1.2-.891-4.44-.891h-.775Z" transform="translate(795.91 -1470.389)" fill="#efefef"/><path d="M-687.958,1496.994l-2.99-6.79h-10.447l-3.062,6.79h-4.5l12.77-27.414,12.752,27.414Zm-11.852-10.356h7.349l-2.7-6.016q-.235-.576-.486-1.324t-.5-1.665q-.216.864-.459,1.612t-.495,1.378Z" transform="translate(774.684 -1469.579)" fill="#efefef"/><path d="M-640.936,1497.8v-26.369h4.287v22.533h9.583v3.836Z" transform="translate(744.99 -1470.389)" fill="#efefef"/><path d="M-594.52,1492.066l3.422-1.585a4.725,4.725,0,0,0,1.783,2.693,5.562,5.562,0,0,0,3.316.928,4.241,4.241,0,0,0,3.035-1.063,3.73,3.73,0,0,0,1.125-2.846q0-2.324-3.853-4.142-.541-.272-.829-.4-4.36-2.125-5.809-3.846a6.3,6.3,0,0,1-1.45-4.206,6.742,6.742,0,0,1,2.189-5.223,8.172,8.172,0,0,1,5.737-2,9.7,9.7,0,0,1,4.881,1.125,5.931,5.931,0,0,1,2.719,3.233l-3.35,1.73a5.6,5.6,0,0,0-1.738-1.82,4.1,4.1,0,0,0-2.171-.577,4,4,0,0,0-2.747.9,3.066,3.066,0,0,0-1.018,2.413q0,2.377,4.468,4.431c.228.108.408.192.54.252a15.909,15.909,0,0,1,5.368,3.521,6.418,6.418,0,0,1,1.459,4.3,7.758,7.758,0,0,1-2.36,5.953,8.963,8.963,0,0,1-6.376,2.207,9.22,9.22,0,0,1-5.52-1.549,7.24,7.24,0,0,1-2.819-4.431" transform="translate(724.727 -1469.929)" fill="#efefef"/><path d="M-531.218,1475.073V1497.8h-4.287v-22.731h-7.006v-3.639h18.264v3.639Z" transform="translate(702.024 -1470.389)" fill="#efefef"/><path d="M-462.154,1484.213a13.547,13.547,0,0,1-1.054,5.313,13.478,13.478,0,0,1-3.07,4.467,14.416,14.416,0,0,1-4.593,3.008,14.055,14.055,0,0,1-5.368,1.045,14.246,14.246,0,0,1-5.431-1.053,14,14,0,0,1-4.566-3,13.412,13.412,0,0,1-3.062-4.448,13.612,13.612,0,0,1-1.045-5.332,13.7,13.7,0,0,1,1.045-5.332,13.564,13.564,0,0,1,3.062-4.485,13.984,13.984,0,0,1,4.575-2.99,14.416,14.416,0,0,1,5.422-1.026,14.3,14.3,0,0,1,5.395,1.026,14.027,14.027,0,0,1,4.566,2.99,13.85,13.85,0,0,1,3.07,4.512,13.578,13.578,0,0,1,1.054,5.3m-4.467,0a10.044,10.044,0,0,0-.729-3.8,9.874,9.874,0,0,0-2.1-3.206,9.293,9.293,0,0,0-3.088-2.135,9.352,9.352,0,0,0-3.7-.748,9.452,9.452,0,0,0-3.7.739,9.437,9.437,0,0,0-3.125,2.143,9.542,9.542,0,0,0-2.09,3.188,10.189,10.189,0,0,0-.72,3.818,10,10,0,0,0,.72,3.782,9.8,9.8,0,0,0,2.09,3.188,9.47,9.47,0,0,0,3.116,2.144,9.442,9.442,0,0,0,3.71.738,9.289,9.289,0,0,0,3.665-.738,9.7,9.7,0,0,0,3.125-2.144,9.9,9.9,0,0,0,2.1-3.2,9.928,9.928,0,0,0,.729-3.773" transform="translate(679.25 -1469.929)" fill="#efefef"/><path d="M-413.272,1496.994v-27.415l16.751,16.121q.685.685,1.387,1.459t1.477,1.747v-18.282h3.962v27.4l-17.093-16.41q-.685-.666-1.324-1.4t-1.217-1.55v18.336Z" transform="translate(645.606 -1469.579)" fill="#efefef"/><path d="M-342.37,1497.8v-26.369h14.716v3.638h-10.429v6.61h10.429v3.765h-10.429v8.52h10.429v3.836Z" transform="translate(614.654 -1470.389)" fill="#efefef"/></g></g></svg>