<svg xmlns="http://www.w3.org/2000/svg" width="29.953" height="34.079" viewBox="0 0 29.953 34.079">
  <g id="sprout_1_" data-name="sprout (1)" transform="translate(0)">
    <g id="Group_36" data-name="Group 36" transform="translate(0 0)">
      <path id="Path_31" data-name="Path 31" d="M57.957,20.1a3,3,0,0,0-1.5.4,7.005,7.005,0,0,0-5.494-4.324v-6.2h1A7,7,0,0,0,58.956,3V1a1,1,0,0,0-1-1h-2a7,7,0,0,0-6.938,6.149,6.969,6.969,0,0,0-5.043-2.155h-2a1,1,0,0,0-1,1v2a7,7,0,0,0,6.989,6.989h1v2.2a6.978,6.978,0,0,0-5.449,4.22,7.006,7.006,0,0,0-7.155,1.262L33.6,24.1H32a1,1,0,0,0-1,1v7.987a1,1,0,0,0,1,1H49.97a7.022,7.022,0,0,0,5.591-2.8l4.793-6.391a3,3,0,0,0-2.4-4.791ZM50.968,6.989A5,5,0,0,1,55.96,2h1V3a5,5,0,0,1-4.992,4.992h-1Zm-3,4.992a5,5,0,0,1-4.992-4.992v-1h1a5,5,0,0,1,4.992,4.992v1Zm2,6.124a5,5,0,0,1,4.88,3.934l-2.019,2.167A3,3,0,0,0,49.97,22.1H46.281a4.128,4.128,0,0,1-1.006-.7A5.027,5.027,0,0,1,49.97,18.1Zm8.787,5.59-4.793,6.391a5.016,5.016,0,0,1-3.994,2H33V26.092h.984a1,1,0,0,0,.66-.249l3.046-2.68a5,5,0,0,1,6.6,0,3.768,3.768,0,0,0,1.805.933H49.97a1,1,0,1,1,0,2h-5.99a1,1,0,1,0,0,2h6.66a3.005,3.005,0,0,0,2.192-.954l4.4-4.719a.989.989,0,0,1,.731-.318,1,1,0,0,1,1,1A.989.989,0,0,1,58.757,23.695Z" transform="translate(-31 0)" fill="#23d446"/>
    </g>
  </g>
</svg>
