<svg xmlns="http://www.w3.org/2000/svg" width="37.974" height="26.196" viewBox="0 0 37.974 26.196">
  <g id="truck" transform="translate(0.25 0.25)">
    <path id="Path_4544" data-name="Path 4544" d="M27.161,30.131H2.535A.535.535,0,0,1,2,29.6V15.677A2.677,2.677,0,0,1,4.677,13H27.161a.535.535,0,0,1,.535.535V29.6A.535.535,0,0,1,27.161,30.131ZM3.071,29.06H26.625V14.071H4.677a1.606,1.606,0,0,0-1.606,1.606Z" transform="translate(-2 -13)" fill="#2acc4a" stroke="#2acc4a" stroke-width="0.5"/>
    <path id="Path_4545" data-name="Path 4545" d="M22.25,53H38.31v1.071H22.25Z" transform="translate(-11.41 -31.587)" fill="#2acc4a" stroke="#2acc4a" stroke-width="0.5"/>
    <path id="Path_4546" data-name="Path 4546" d="M36.8,49.424H35.325V48.353H36.8A1.606,1.606,0,0,0,38.4,46.747V44.071H3.071v2.677a1.606,1.606,0,0,0,1.606,1.606h1.74v1.071H4.677A2.677,2.677,0,0,1,2,46.747V43.535A.535.535,0,0,1,2.535,43h36.4a.535.535,0,0,1,.535.535v3.212A2.677,2.677,0,0,1,36.8,49.424Z" transform="translate(-2 -26.94)" fill="#2acc4a" stroke="#2acc4a" stroke-width="0.5"/>
    <path id="Path_4547" data-name="Path 4547" d="M61.313,33.777H60.242v-5.7l-4-5.005H49V22h7.495a.535.535,0,0,1,.418.2l4.283,5.353a.535.535,0,0,1,.118.332Z" transform="translate(-23.839 -17.182)" fill="#2acc4a" stroke="#2acc4a" stroke-width="0.5"/>
    <path id="Path_4548" data-name="Path 4548" d="M55,54.495a3.747,3.747,0,1,1,3.747-3.747A3.747,3.747,0,0,1,55,54.495Zm0-6.424a2.677,2.677,0,1,0,2.677,2.677A2.677,2.677,0,0,0,55,48.071Z" transform="translate(-24.885 -28.799)" fill="#2acc4a" stroke="#2acc4a" stroke-width="0.5"/>
    <path id="Path_4549" data-name="Path 4549" d="M13,54.495a3.747,3.747,0,1,1,3.747-3.747A3.747,3.747,0,0,1,13,54.495Zm0-6.424a2.677,2.677,0,1,0,2.677,2.677A2.677,2.677,0,0,0,13,48.071Z" transform="translate(-5.369 -28.799)" fill="#2acc4a" stroke="#2acc4a" stroke-width="0.5"/>
    <path id="Path_4550" data-name="Path 4550" d="M23.533,27.959A.535.535,0,0,1,23,27.376c0-.064.653-6.376,6.959-6.376a.535.535,0,0,1,.535.535A6.506,6.506,0,0,1,23.533,27.959Zm5.846-5.889a5.67,5.67,0,0,0-5.214,4.775A5.215,5.215,0,0,0,29.379,22.071Z" transform="translate(-11.756 -16.717)" fill="#2acc4a" stroke="#2acc4a" stroke-width="0.5"/>
    <path id="Path_4551" data-name="Path 4551" d="M19.353,29.353A4.928,4.928,0,0,1,14,24.535.535.535,0,0,1,14.535,24c4.85,0,5.353,4.722,5.353,4.77a.535.535,0,0,1-.535.584ZM15.135,25.1A3.713,3.713,0,0,0,18.7,28.251,4.026,4.026,0,0,0,15.135,25.1Z" transform="translate(-7.576 -18.111)" fill="#2acc4a" stroke="#2acc4a" stroke-width="0.5"/>
    <path id="Path_4552" data-name="Path 4552" d="M23,33h1.071v2.677H23Z" transform="translate(-11.758 -22.293)" fill="#2acc4a" stroke="#2acc4a" stroke-width="0.5"/>
    <path id="Path_4553" data-name="Path 4553" d="M62.636,31.565h-9.1A.535.535,0,0,1,53,31.03V23h1.071v7.495h8.565Z" transform="translate(-25.698 -17.647)" fill="#2acc4a" stroke="#2acc4a" stroke-width="0.5"/>
  </g>
</svg>
