<svg xmlns="http://www.w3.org/2000/svg" width="36.044" height="36.044" viewBox="0 0 36.044 36.044">
  <g id="agronomy" transform="translate(0.25 0.25)">
    <g id="Group_4" data-name="Group 4" transform="translate(10.039 4.506)">
      <g id="Group_3" data-name="Group 3">
        <path id="Path_16" data-name="Path 16" d="M159.811,78.613a.694.694,0,0,0-.428-.457,4.935,4.935,0,0,0-.916-.214,5.9,5.9,0,0,0,1.344-5.79.694.694,0,0,0-.428-.457,5.975,5.975,0,0,0-3.733.039,6.238,6.238,0,0,0,.173-1.483A5.9,5.9,0,0,0,152.676,65a.694.694,0,0,0-.626-.021,5.875,5.875,0,0,0-3.189,5.274,6.235,6.235,0,0,0,.174,1.486,5.974,5.974,0,0,0-3.742-.042.7.7,0,0,0-.428.457,5.9,5.9,0,0,0,1.344,5.79,4.933,4.933,0,0,0-.916.214.7.7,0,0,0-.428.457,5.9,5.9,0,0,0,1.489,5.941,5.76,5.76,0,0,0,4.167,1.755,6.21,6.21,0,0,0,1.117-.1V90.75a.694.694,0,0,0,1.388,0V86.206a6.219,6.219,0,0,0,1.127.1,5.761,5.761,0,0,0,4.167-1.755A5.9,5.9,0,0,0,159.811,78.613Zm-8.172,5.43a4.628,4.628,0,0,1-.1.77,4.58,4.58,0,0,1-5.438-5.441,4.655,4.655,0,0,1,2.385.113q.1.037.2.07a4.55,4.55,0,0,1,1.613,1.058,4.426,4.426,0,0,1,1.343,2.967Zm0-6.461a4.626,4.626,0,0,1-.1.77,4.613,4.613,0,0,1-2.337-.093q-.151-.058-.3-.106a4.585,4.585,0,0,1-1.564-1.042,4.476,4.476,0,0,1-1.238-4.2,4.5,4.5,0,0,1,4.2,1.241l.029.03q.091.1.183.2a4.4,4.4,0,0,1,1.131,2.74v.463Zm.7-3.483a4.722,4.722,0,0,1-.85-.7l-.1-.107a4.429,4.429,0,0,1-1.145-3.039,4.481,4.481,0,0,1,2.089-3.846,4.476,4.476,0,0,1,2.1,3.846,4.428,4.428,0,0,1-1.039,2.922c-.112.113-.218.226-.317.341A4.665,4.665,0,0,1,152.344,74.1Zm.689,3.258a4.395,4.395,0,0,1,1.073-2.906c.1-.1.205-.211.307-.329a4.481,4.481,0,0,1,4.165-1.212,4.476,4.476,0,0,1-1.237,4.2,4.584,4.584,0,0,1-1.561,1.041q-.151.049-.3.107a4.612,4.612,0,0,1-2.335.093,4.659,4.659,0,0,1-.108-.978C153.032,77.369,153.032,77.363,153.032,77.357Zm4.308,6.215a4.481,4.481,0,0,1-4.2,1.242,4.5,4.5,0,0,1,1.24-4.2,4.582,4.582,0,0,1,1.566-1.043q.148-.048.3-.105a4.615,4.615,0,0,1,2.333-.094A4.477,4.477,0,0,1,157.34,83.572Z" transform="translate(-144.606 -64.913)" fill="#23d446" stroke="#23d446" stroke-width="0.5"/>
      </g>
    </g>
    <g id="Group_6" data-name="Group 6" transform="translate(0)">
      <g id="Group_5" data-name="Group 5">
        <path id="Path_17" data-name="Path 17" d="M21.476.387A17.892,17.892,0,0,0,17.772,0,17.772,17.772,0,0,0,3.755,28.7a2.635,2.635,0,1,0,1.036-.931,16.391,16.391,0,0,1,16.4-26.022A.694.694,0,1,0,21.476.387ZM5.09,29.242a1.25,1.25,0,1,1-.366.884A1.245,1.245,0,0,1,5.09,29.242Z" transform="translate(0 0)" fill="#23d446" stroke="#23d446" stroke-width="0.5"/>
      </g>
    </g>
    <g id="Group_8" data-name="Group 8" transform="translate(14.062 2.78)">
      <g id="Group_7" data-name="Group 7">
        <path id="Path_18" data-name="Path 18" d="M220.283,44.117a2.635,2.635,0,1,0-1.036.931,16.391,16.391,0,0,1-15.875,26.124.694.694,0,0,0-.244,1.367,17.938,17.938,0,0,0,3.138.276,17.772,17.772,0,0,0,14.017-28.7Zm-1.335-.544a1.25,1.25,0,1,1,.366-.884A1.241,1.241,0,0,1,218.948,43.573Z" transform="translate(-202.556 -40.051)" fill="#23d446" stroke="#23d446" stroke-width="0.5"/>
      </g>
    </g>
    <g id="Group_10" data-name="Group 10" transform="translate(10.716 32.931)">
      <g id="Group_9" data-name="Group 9">
        <path id="Path_19" data-name="Path 19" d="M155.312,474.412l-.262.643.26-.644a.694.694,0,0,0-.52,1.287l.021.008a.694.694,0,0,0,.5-1.3Z" transform="translate(-154.355 -474.36)" fill="#23d446" stroke="#23d446" stroke-width="0.5"/>
      </g>
    </g>
    <g id="Group_12" data-name="Group 12" transform="translate(23.46 1.233)">
      <g id="Group_11" data-name="Group 11">
        <path id="Path_20" data-name="Path 20" d="M338.893,17.809l-.012,0a.694.694,0,1,0-.516,1.289l.008,0a.694.694,0,1,0,.52-1.287Z" transform="translate(-337.929 -17.754)" fill="#23d446" stroke="#23d446" stroke-width="0.5"/>
      </g>
    </g>
  </g>
</svg>
