<svg id="agronomy_1_" data-name="agronomy (1)" xmlns="http://www.w3.org/2000/svg" width="31.425" height="31.425" viewBox="0 0 31.425 31.425">
  <path id="Path_29" data-name="Path 29" d="M30.5,12.95h-1.26a13.751,13.751,0,0,0-.431-1.613l1.09-.629a.92.92,0,0,0,.337-1.257L28.4,6.261a.92.92,0,0,0-1.257-.337l-1.093.631a13.911,13.911,0,0,0-1.18-1.18L25.5,4.283a.92.92,0,0,0-.337-1.257l-3.19-1.842a.92.92,0,0,0-1.257.337l-.629,1.09a13.741,13.741,0,0,0-1.613-.431V.92a.92.92,0,0,0-.92-.92H13.871a.92.92,0,0,0-.92.92V2.18a13.762,13.762,0,0,0-1.613.431l-.629-1.09a.92.92,0,0,0-1.257-.337L6.261,3.026a.92.92,0,0,0-.337,1.257l.631,1.093a13.912,13.912,0,0,0-1.18,1.18L4.283,5.924a.92.92,0,0,0-1.257.337L1.184,9.451a.92.92,0,0,0,.337,1.257l1.09.629A13.739,13.739,0,0,0,2.18,12.95H.92a.92.92,0,0,0-.92.92v3.683a.92.92,0,0,0,.92.92H2.18a13.751,13.751,0,0,0,.431,1.613l-1.09.629a.92.92,0,0,0-.337,1.257l1.842,3.19a.92.92,0,0,0,1.257.337l1.093-.631a13.912,13.912,0,0,0,1.18,1.18l-.631,1.093A.92.92,0,0,0,6.261,28.4l3.19,1.842a.92.92,0,0,0,1.257-.337l.629-1.09a13.741,13.741,0,0,0,1.613.431V30.5a.92.92,0,0,0,.92.92h3.683a.92.92,0,0,0,.92-.92v-1.26a13.762,13.762,0,0,0,1.613-.431l.629,1.09a.92.92,0,0,0,1.257.337l3.19-1.842a.92.92,0,0,0,.337-1.257l-.631-1.093a13.913,13.913,0,0,0,1.18-1.18l1.093.631a.92.92,0,0,0,1.257-.337l1.842-3.19a.92.92,0,0,0-.337-1.257l-1.09-.629a13.74,13.74,0,0,0,.431-1.613H30.5a.92.92,0,0,0,.92-.92V13.871a.92.92,0,0,0-.92-.92Zm-.921,3.683H28.47a.92.92,0,0,0-.911.79h0a11.9,11.9,0,0,1-.73,2.732h0a.92.92,0,0,0,.394,1.139l.963.556-.921,1.595-.965-.557a.92.92,0,0,0-1.183.227h0a12.035,12.035,0,0,1-2,2,.92.92,0,0,0-.227,1.183l.557.965-1.595.921-.556-.963a.92.92,0,0,0-1.139-.394h0a11.9,11.9,0,0,1-2.732.73h0a.92.92,0,0,0-.79.911v1.114H14.792V28.47a.92.92,0,0,0-.79-.911h0a11.9,11.9,0,0,1-2.732-.73h0a.92.92,0,0,0-1.139.394l-.556.963L7.98,27.265l.557-.965a.92.92,0,0,0-.227-1.183h0a12.034,12.034,0,0,1-2-2h0a.92.92,0,0,0-1.183-.227l-.965.557-.921-1.595.963-.556A.92.92,0,0,0,4.6,20.156h0a11.9,11.9,0,0,1-.73-2.732h0a.92.92,0,0,0-.911-.79H1.841V14.792H2.955A.92.92,0,0,0,3.866,14h0a11.9,11.9,0,0,1,.73-2.732h0A.92.92,0,0,0,4.2,10.13l-.963-.556L4.16,7.98l.965.557a.92.92,0,0,0,1.183-.227h0a12.036,12.036,0,0,1,2-2,.92.92,0,0,0,.227-1.183L7.98,4.16l1.595-.921.556.963a.92.92,0,0,0,1.139.394h0A11.9,11.9,0,0,1,14,3.866h0a.92.92,0,0,0,.79-.911V1.841h1.841V2.955a.92.92,0,0,0,.79.911h0a11.9,11.9,0,0,1,2.732.73h0A.92.92,0,0,0,21.295,4.2l.556-.963,1.595.921-.557.965a.92.92,0,0,0,.227,1.183h0a12.034,12.034,0,0,1,2,2h0a.92.92,0,0,0,1.183.227l.965-.557.921,1.595-.963.556a.92.92,0,0,0-.394,1.139h0A11.9,11.9,0,0,1,27.559,14h0a.92.92,0,0,0,.911.79h1.114Z" transform="translate(0 0)" fill="#23d446"/>
  <path id="Path_30" data-name="Path 30" d="M110.63,101a9.63,9.63,0,1,0,9.63,9.63A9.641,9.641,0,0,0,110.63,101Zm1.057,9.042a4.058,4.058,0,0,1,1.974-1.555,3.389,3.389,0,0,1-2.333,4.042A4.068,4.068,0,0,1,111.687,110.042Zm-.125,8.3v-3.907a6.218,6.218,0,0,0,3.353-2.527,6.73,6.73,0,0,0,.328-4.917.932.932,0,0,0-1.077-.622,7.261,7.261,0,0,0-3.536,1.978,7.261,7.261,0,0,0-3.536-1.978.932.932,0,0,0-1.077.622,6.73,6.73,0,0,0,.328,4.917,6.218,6.218,0,0,0,3.353,2.527v3.907a7.766,7.766,0,1,1,1.864,0Zm-2.128-6.048a3.644,3.644,0,0,1-1.475-1.318,4.058,4.058,0,0,1-.36-2.486,4.068,4.068,0,0,1,1.974,1.554c.021.037.041.075.061.113A6.331,6.331,0,0,0,109.434,112.292Z" transform="translate(-94.917 -94.917)" fill="#23d446"/>
</svg>
