<svg xmlns="http://www.w3.org/2000/svg" width="15.154" height="11.51" viewBox="0 0 15.154 11.51">
  <path id="message-closed-envelope" d="M13.356,45.945H1.8A1.766,1.766,0,0,0,0,47.672v8.055a1.766,1.766,0,0,0,1.8,1.727H13.356a1.766,1.766,0,0,0,1.8-1.727V47.672A1.766,1.766,0,0,0,13.356,45.945Zm0,9.985H1.8c-.146,0-.274-.095-.274-.2v-6.99L6.752,53.15a.6.6,0,0,0,.384.14h.883a.6.6,0,0,0,.384-.14l5.227-4.413v6.99C13.629,55.836,13.5,55.93,13.356,55.93ZM7.577,51.777,2.493,47.47H12.661Z" transform="translate(0 -45.945)" fill="#fff"/>
</svg>
