<svg xmlns="http://www.w3.org/2000/svg" width="13.751" height="13.762" viewBox="0 0 13.751 13.762">
  <path id="Path_33" data-name="Path 33" d="M10.009,3.137c-2.816,0-5.49-.251-6.512,2.371a13.535,13.535,0,0,0-.361,4.5,14.344,14.344,0,0,0,.361,4.5c1.019,2.623,3.715,2.372,6.51,2.372,2.7,0,5.477.281,6.511-2.372a13.513,13.513,0,0,0,.361-4.5c0-2.685.148-4.418-1.154-5.72-1.318-1.318-3.1-1.153-5.719-1.153ZM9.393,4.376c5.874-.009,6.622-.662,6.209,8.41-.147,3.209-2.59,2.856-5.593,2.856-5.476,0-5.633-.157-5.633-5.635,0-5.542.434-5.628,5.016-5.633Zm4.284,1.141a.824.824,0,1,0,.824.824A.825.825,0,0,0,13.677,5.517Zm-3.668.964a3.529,3.529,0,1,0,3.528,3.53,3.529,3.529,0,0,0-3.528-3.53Zm0,1.239a2.291,2.291,0,0,1,0,4.582A2.291,2.291,0,0,1,10.009,7.719Z" transform="translate(-3.133 -3.13)" fill="#fff"/>
</svg>
