<svg xmlns="http://www.w3.org/2000/svg" width="16.833" height="16.833" viewBox="0 0 16.833 16.833">
  <path id="linkedin" d="M8.417,0a8.417,8.417,0,1,0,8.417,8.417A8.418,8.418,0,0,0,8.417,0ZM5.971,12.724H3.921V6.557h2.05ZM4.946,5.715H4.933A1.068,1.068,0,1,1,4.96,3.584a1.069,1.069,0,1,1-.014,2.131Zm8.416,7.009h-2.05v-3.3c0-.829-.3-1.395-1.038-1.395a1.122,1.122,0,0,0-1.052.75,1.4,1.4,0,0,0-.067.5v3.444H7.105s.027-5.588,0-6.167h2.05V7.43A2.035,2.035,0,0,1,11,6.412c1.349,0,2.36.881,2.36,2.776Zm0,0" fill="#fff"/>
</svg>
