<svg xmlns="http://www.w3.org/2000/svg" width="13.761" height="13.762" viewBox="0 0 13.761 13.762">
  <g id="whatsapp" transform="translate(0)">
    <path id="Path_138" data-name="Path 138" d="M12.588,10.913l-.005.043c-1.261-.628-1.393-.712-1.556-.468-.113.169-.442.553-.541.666s-.2.12-.37.043a4.654,4.654,0,0,1-1.378-.851,5.2,5.2,0,0,1-.952-1.187c-.168-.29.183-.331.5-.937a.315.315,0,0,0-.014-.3c-.043-.086-.385-.929-.529-1.265s-.279-.292-.385-.292a.853.853,0,0,0-.784.2c-.925,1.017-.692,2.067.1,3.182a6.776,6.776,0,0,0,3.9,2.932,2.372,2.372,0,0,0,1.078.069,1.765,1.765,0,0,0,1.156-.818,1.419,1.419,0,0,0,.1-.817C12.872,11.034,12.76,10.991,12.588,10.913Z" transform="translate(-2.549 -2.71)" fill="#fff"/>
    <path id="Path_139" data-name="Path 139" d="M11.766,1.977A6.882,6.882,0,0,0,.058,6.819a6.787,6.787,0,0,0,.915,3.409L0,13.761l3.632-.947A6.864,6.864,0,0,0,13.761,6.823a6.763,6.763,0,0,0-2-4.823Zm.85,4.826A5.709,5.709,0,0,1,4.008,11.68L3.8,11.557l-2.15.559.576-2.09-.137-.215A5.687,5.687,0,0,1,10.948,2.8,5.612,5.612,0,0,1,12.616,6.8Z" transform="translate(0 0)" fill="#fff"/>
  </g>
</svg>
