<svg xmlns="http://www.w3.org/2000/svg" viewBox="0 0 143.06 14.79"><defs><style>.cls-1{isolation:isolate;}.cls-2{fill:#162763;}.cls-3{fill:#ff00f9;}.cls-4{fill:#00b1ff;}</style></defs><g id="Layer_2" data-name="Layer 2"><g id="Layer_1-2" data-name="Layer 1"><g id="Group_2992" data-name="Group 2992"><g id="Developed_by" data-name="Developed by" class="cls-1"><g class="cls-1"><path class="cls-2" d="M3.71,12.38H2.41L0,4H1.18L3.1,10.9,5.14,4H6.26l2,6.92L10.22,4H11.4L9,12.38H7.69l-2-6.7Z"/><path class="cls-2" d="M17.53,9.86h-5a2,2,0,0,0,.74,1.25,2.25,2.25,0,0,0,1.44.45,1.88,1.88,0,0,0,1.72-.88l.89.5a2.94,2.94,0,0,1-2.64,1.36,3.22,3.22,0,0,1-2.33-.89,3.12,3.12,0,0,1-.88-2.27,3.08,3.08,0,0,1,.87-2.25,3,3,0,0,1,2.27-.9,2.74,2.74,0,0,1,2.15.93,3.2,3.2,0,0,1,.84,2.24A2.45,2.45,0,0,1,17.53,9.86Zm-3-2.65a2.12,2.12,0,0,0-1.39.47A2,2,0,0,0,12.5,9h4a2.06,2.06,0,0,0-.66-1.28A1.84,1.84,0,0,0,14.58,7.21Z"/><path class="cls-2" d="M22.08,6.23a2.89,2.89,0,0,1,2.15.92,3.12,3.12,0,0,1,.89,2.23,3.15,3.15,0,0,1-.89,2.25,2.86,2.86,0,0,1-2.15.91,2.56,2.56,0,0,1-2.27-1.19v1h-1V4h1V7.42A2.54,2.54,0,0,1,22.08,6.23ZM22,11.53a2,2,0,0,0,1.51-.61,2.13,2.13,0,0,0,.61-1.54,2.07,2.07,0,0,0-.61-1.52A2,2,0,0,0,22,7.24a2,2,0,0,0-1.53.62,2.11,2.11,0,0,0-.61,1.52,2.17,2.17,0,0,0,.61,1.54A2.07,2.07,0,0,0,22,11.53Z"/><path class="cls-2" d="M27.13,8c0,.39.4.69,1.19.9a7.73,7.73,0,0,1,.75.2,3.88,3.88,0,0,1,.67.31,1.33,1.33,0,0,1,.56.54,1.54,1.54,0,0,1,.19.79,1.59,1.59,0,0,1-.63,1.31,2.55,2.55,0,0,1-1.61.49,2.88,2.88,0,0,1-1.5-.38,2.1,2.1,0,0,1-.89-1l.9-.52a1.26,1.26,0,0,0,.54.68,1.71,1.71,0,0,0,.95.26,1.54,1.54,0,0,0,.86-.21.66.66,0,0,0,.33-.61c0-.41-.4-.7-1.19-.89l-.6-.17a5.55,5.55,0,0,1-.56-.21,2,2,0,0,1-.53-.33,1.77,1.77,0,0,1-.33-.47A1.41,1.41,0,0,1,26.08,8a1.62,1.62,0,0,1,.6-1.29,2.32,2.32,0,0,1,1.52-.5,2.54,2.54,0,0,1,1.3.33,2.07,2.07,0,0,1,.86.92L29.48,8a1.44,1.44,0,0,0-2-.55A.66.66,0,0,0,27.13,8Z"/><path class="cls-2" d="M32.2,5.29a.73.73,0,0,1-.51-.2.71.71,0,0,1,.51-1.2.67.67,0,0,1,.49.21.7.7,0,0,1-.49,1.19Zm.51,7.09h-1v-6h1Z"/><path class="cls-2" d="M37.57,6.38v1H36v3.25a.88.88,0,0,0,.17.63.72.72,0,0,0,.53.2l.89,0v.93a3.08,3.08,0,0,1-2-.22,1.69,1.69,0,0,1-.63-1.52V7.39H33.74v-1h1.19V5l1-.32V6.38Z"/><path class="cls-2" d="M44.27,9.86h-5A2,2,0,0,0,40,11.11a2.29,2.29,0,0,0,1.44.45,1.89,1.89,0,0,0,1.73-.88l.89.5a2.94,2.94,0,0,1-2.64,1.36,3.21,3.21,0,0,1-2.33-.89,3.13,3.13,0,0,1-.89-2.27,3,3,0,0,1,3.15-3.15,2.72,2.72,0,0,1,2.14.93A3.2,3.2,0,0,1,44.3,9.4,3.67,3.67,0,0,1,44.27,9.86Zm-3-2.65a2.09,2.09,0,0,0-1.39.47A2,2,0,0,0,39.24,9h4a2.06,2.06,0,0,0-.66-1.28A1.86,1.86,0,0,0,41.32,7.21Z"/><path class="cls-2" d="M51.82,6.23A2.87,2.87,0,0,1,54,7.15a3.08,3.08,0,0,1,.89,2.23A3.11,3.11,0,0,1,54,11.63a2.84,2.84,0,0,1-2.14.91,2.55,2.55,0,0,1-2.27-1.19v1h-1V4h1V7.42A2.53,2.53,0,0,1,51.82,6.23Zm-.14,5.3a2.07,2.07,0,0,0,1.52-.61,2.17,2.17,0,0,0,.61-1.54,2.11,2.11,0,0,0-.61-1.52,2.17,2.17,0,0,0-3,0,2.07,2.07,0,0,0-.61,1.52,2.13,2.13,0,0,0,.61,1.54A2.07,2.07,0,0,0,51.68,11.53Z"/><path class="cls-2" d="M58.32,11.09l1.73-4.71h1.11l-2.44,6.38a3.58,3.58,0,0,1-1.09,1.55,2.23,2.23,0,0,1-1.58.47v-1c.74.06,1.28-.35,1.62-1.22l.11-.23-2.62-6h1.12Z"/></g></g><g id="Group_2990" data-name="Group 2990"><g id="Group_2989" data-name="Group 2989"><path id="Path_10246" data-name="Path 10246" class="cls-2" d="M89.88,2.21H92.2l3.23,7.57,3.24-7.57H101V12.39h-2V5.77L96.2,12.39H94.66L91.91,5.77v6.62h-2Z"/><path id="Path_10247" data-name="Path 10247" class="cls-2" d="M106.21,4.18a3.17,3.17,0,0,1,2.67,1.28V4.31h2.06v8.08h-2.06V11.21a3.16,3.16,0,0,1-2.68,1.31c-2,0-3.68-1.67-3.68-4.2S104.15,4.18,106.21,4.18ZM106.74,6a2.16,2.16,0,0,0-2.14,2.17,1.09,1.09,0,0,0,0,.18,2.2,2.2,0,0,0,2,2.4h.13a2.18,2.18,0,0,0,2.15-2.2,1.09,1.09,0,0,0,0-.18,2.18,2.18,0,0,0-2-2.37Z"/><path id="Path_10248" data-name="Path 10248" class="cls-2" d="M114.52,12.39h-2V4.31h2V5.56A2.82,2.82,0,0,1,117,4.19V6.34h-.54c-1.21,0-1.94.46-1.94,2Z"/><path id="Path_10249" data-name="Path 10249" class="cls-2" d="M118.54,1.6h2V12.39h-2Z"/><path id="Path_10250" data-name="Path 10250" class="cls-2" d="M121.92,2.15A1.19,1.19,0,0,1,123.11,1h.06a1.19,1.19,0,0,1,1.25,1.16v0a1.2,1.2,0,0,1-1.21,1.2h0a1.2,1.2,0,0,1-1.25-1.14Zm.21,2.16h2.05v8.08h-2.05Z"/><path id="Path_10251" data-name="Path 10251" class="cls-2" d="M131.43,7.93a1.82,1.82,0,1,0-3.63-.34,1.93,1.93,0,0,0,0,.34v4.46h-2V4.31h2v1a3.07,3.07,0,0,1,2.44-1.12,3.11,3.11,0,0,1,3.24,3,2.68,2.68,0,0,1,0,.49v4.74h-2Z"/><path id="Path_10252" data-name="Path 10252" class="cls-2" d="M139.07,12.52A3.91,3.91,0,0,1,135,8.76c0-.14,0-.27,0-.41a3.87,3.87,0,0,1,3.58-4.16,2.44,2.44,0,0,1,.47,0,3.78,3.78,0,0,1,4,3.59,2.81,2.81,0,0,1,0,.41A4.2,4.2,0,0,1,143,9h-5.91A1.88,1.88,0,0,0,139,10.83h0a1.65,1.65,0,0,0,1.62-1h2.2A3.75,3.75,0,0,1,139.07,12.52Zm-2-4.93h3.84a1.81,1.81,0,0,0-1.86-1.74H139a1.87,1.87,0,0,0-1.9,1.73Z"/></g><path id="Path_10253" data-name="Path 10253" class="cls-3" d="M82.54,12.52H67.22a1.17,1.17,0,0,1-1.17-1.16h0V1.17A1.17,1.17,0,0,1,67.22,0,1.19,1.19,0,0,1,68,.27Z"/><path id="Path_10254" data-name="Path 10254" class="cls-4" d="M67.22,12.52H82.53a1.16,1.16,0,0,0,1.17-1.16h0V1.17A1.17,1.17,0,0,0,82.53,0a1.21,1.21,0,0,0-.75.27Z"/></g></g></g></g></svg>