<svg xmlns="http://www.w3.org/2000/svg" xmlns:xlink="http://www.w3.org/1999/xlink" width="35.446" height="27.611" viewBox="0 0 35.446 27.611"><defs><clipPath id="a"><path d="M-997.97,1440.276s-14.741,25.577-15.912,27.605h10.625s1.212-2.112,3.34-5.809c1.3,2.226,3.112,5.316,3.4,5.815h3.545c-1.42-2.441-3.725-6.391-5.179-8.883,1.547-2.686,3.4-5.9,5.493-9.526.736,1.276,8.157,14.039,8.909,15.342h-3.542c-.43-.745-4.936-8.46-5.368-9.207l-1.771,3.067c.431.746,4.936,8.46,5.368,9.207h10.625c-.018-.032-13.924-24.029-14.222-24.543-4.52,7.831-7.466,12.974-12.371,21.471h-3.542s13.508-23.44,14.142-24.539Z" transform="translate(1013.882 -1440.276)" fill="none"/></clipPath><linearGradient id="b" x1="5.913" y1="20.344" x2="5.919" y2="20.344" gradientUnits="objectBoundingBox"><stop offset="0" stop-color="#dec699"/><stop offset="1" stop-color="#b8a379"/></linearGradient></defs><g clip-path="url(#a)"><rect width="44.302" height="44.788" transform="translate(-13.752 15.015) rotate(-47.514)" fill="url(#b)"/></g></svg>