<svg xmlns="http://www.w3.org/2000/svg" width="369.302" height="267.917" viewBox="0 0 369.302 267.917">
  <g id="Group_393" data-name="Group 393" transform="translate(-935.198 -386.154)">
    <g id="Group_97" data-name="Group 97" transform="translate(935.198 386.154)">
      <path id="Path_1" data-name="Path 1" d="M51.312,155.6c20.74.327,41.125,3.212,60.521,10.7,4.636,1.788,5.836,1.228,7.122-3.278,7.878-27.63,25.791-48.363,47.2-66.836,4.52-3.91,7.107-3.452,11.235.065,21.344,18.168,38.763,38.974,46.793,66.2,1.352,4.571,2.972,5.516,7.783,3.706,21.162-7.943,43.225-10.93,65.833-10.341a11.88,11.88,0,0,1,4.382.69,133.992,133.992,0,0,0-261.261.233c1.889-1.112,5.072-1.228,10.392-1.141" transform="translate(-37.614 -52.454)" fill="#efefef"/>
      <path id="Path_2" data-name="Path 2" d="M96.592,63.53c-3.241-3.03-5.567-3.663-8.953-.421C71.462,78.58,59.85,96.683,54.3,118.346c-.727,2.849-1.533,5.632,1.671,7.921,16.089,11.5,27.135,26.947,35.987,47.04,8.546-20.3,20.246-35.558,36.292-47.4,2.376-1.751,2.456-3.51,1.78-6.083A115.66,115.66,0,0,0,96.592,63.53" transform="translate(42.152 0.799)" fill="#efefef"/>
      <path id="Path_3" data-name="Path 3" d="M307.569,69.347c-1.9,37.121-20.094,77.119-60.143,94.9-1.5.669-3.016,1.3-4.535,1.911-18.466,7.565-38.058,10.494-58.224,10.973l4.876-8.633.094-.138.116-.167c.247-.371.487-.741.727-1.1l.094-.145c11.62-17.7,21.62-35.522,23.182-56.727.567-7.754,3.714-12.71,9.673-16.744,1.926-1.3,3.866-3.452,6.41-2.166,2.594,1.315,1.737,4.171,1.657,6.366a139.126,139.126,0,0,1-11.867,52.243c-1.025,2.289-3.263,4.44-.85,7.107a110.84,110.84,0,0,0,28.385-11.417c23.9-14.12,39.235-38.305,42.9-68.435.763-6.264-.785-7.965-6.788-7.333-18.771,1.984-36.917,5.945-53.457,15.392-7.282,4.389-14.549,8.786-19.541,15.908-17.906,17.448-26.685,39.853-34.86,64.045-5.472-12.565-10.109-23.952-15.341-35.071C141.551,90.756,108.326,73.5,66.133,69.892c-5.138-.436-7.987-.247-7.238,6.875,4.179,39.846,30.493,69.83,71.233,79.982,2.405-2.674.167-4.825-.857-7.115a138.974,138.974,0,0,1-11.86-52.243c-.08-2.187-.937-5.051,1.657-6.366,2.544-1.286,4.477.872,6.4,2.173,5.966,4.026,9.106,8.989,9.673,16.736,1.57,21.206,11.569,39.032,23.182,56.727l.095.145c.24.363.48.734.727,1.1l.116.167.095.138,4.876,8.633c-22.935-.538-45.136-4.251-65.775-14.36C68.814,147.97,52.6,123.211,44.978,92.348a123.1,123.1,0,0,1-3.634-23.575,135.775,135.775,0,0,0-.879,15.37,133.959,133.959,0,0,0,267.918,0,136.117,136.117,0,0,0-.814-14.8" transform="translate(-40.465 49.819)" fill="#efefef"/>
    </g>
    <g id="Group_98" data-name="Group 98" transform="translate(1268.942 642.754) rotate(-90)">
      <path id="Path_4" data-name="Path 4" d="M95.253,63.539H102.2l9.6,27.716h-7.727L102.4,85.827H95.02l-1.639,5.428H85.612Zm5.934,17.215-2.46-8.587-2.576,8.587Z" transform="translate(-85.612 -55.928)" fill="#efefef"/>
      <path id="Path_5" data-name="Path 5" d="M99.351,85.593,112.31,70.174H99.936V63.54h21.157V69.2L108.915,84.616h12.412v6.636H99.351Z" transform="translate(-72.185 -55.927)" fill="#efefef"/>
      <path id="Path_6" data-name="Path 6" d="M125.384,91.525a13.89,13.89,0,0,1-13.252-8.841,12.549,12.549,0,0,1-.917-4.548,14.928,14.928,0,0,1,.079-1.5q.08-.762.156-1.347h19.712a5.978,5.978,0,0,0-.645-2.343,5.036,5.036,0,0,0-3.065-2.517,6.866,6.866,0,0,0-1.991-.293,6.356,6.356,0,0,0-1.619.214,6.251,6.251,0,0,0-1.481.607,4.659,4.659,0,0,0-1.19.957,3.513,3.513,0,0,0-.741,1.307L112.5,70.995a12.989,12.989,0,0,1,2.009-3.085,11.816,11.816,0,0,1,2.871-2.381,14.58,14.58,0,0,1,3.648-1.523,16.573,16.573,0,0,1,4.352-.546,13.727,13.727,0,0,1,6.031,1.267,13.974,13.974,0,0,1,7.124,7.613,12.869,12.869,0,0,1,.935,4.7,15.827,15.827,0,0,1-.9,5.21,13.746,13.746,0,0,1-7.122,7.984,13.657,13.657,0,0,1-6.07,1.287m.117-6.636a6.159,6.159,0,0,0,3.69-1.054,4.367,4.367,0,0,0,1.778-2.966H119.646a4.364,4.364,0,0,0,1.934,2.966,6.921,6.921,0,0,0,3.921,1.054" transform="translate(-60.59 -56.005)" fill="#efefef"/>
      <path id="Path_7" data-name="Path 7" d="M127.145,91.252V63.54h12.726a8.412,8.412,0,0,1,3.747.838,9.72,9.72,0,0,1,2.948,2.185,10.2,10.2,0,0,1,1.93,3.083,9.219,9.219,0,0,1,.7,3.5,9.872,9.872,0,0,1-1.054,4.508,9.208,9.208,0,0,1-2.928,3.415l5.857,10.187h-8.589l-4.878-8.508h-2.849v8.508Zm7.613-15.144h4.8a1.682,1.682,0,0,0,1.307-.781,3.493,3.493,0,0,0,.607-2.185,3.153,3.153,0,0,0-.7-2.207,1.965,1.965,0,0,0-1.406-.761h-4.605Z" transform="translate(-45.021 -55.927)" fill="#efefef"/>
      <path id="Path_8" data-name="Path 8" d="M159.841,89.046a10.294,10.294,0,0,1-6.832,2.5,14.07,14.07,0,0,1-5.153-.957,12.283,12.283,0,0,1-4.293-2.79,13.494,13.494,0,0,1-2.928-4.49,15.741,15.741,0,0,1-1.093-6.049,13.52,13.52,0,0,1,4.1-9.817,14.216,14.216,0,0,1,4.506-2.928,14.505,14.505,0,0,1,5.6-1.074,15.435,15.435,0,0,1,3.591.411,12.772,12.772,0,0,1,3.182,1.21,12.592,12.592,0,0,1,2.636,1.912,9.745,9.745,0,0,1,1.912,2.517l-5.661,4.332a6.361,6.361,0,0,0-2.46-2.634,6.579,6.579,0,0,0-3.472-1,5.655,5.655,0,0,0-2.5.548,5.846,5.846,0,0,0-1.954,1.523,7.305,7.305,0,0,0-1.287,2.321,9.564,9.564,0,0,0,0,5.914,6.88,6.88,0,0,0,1.307,2.284,5.82,5.82,0,0,0,2.011,1.483,6.29,6.29,0,0,0,2.616.528,7.785,7.785,0,0,0,5.853-2.733h-4.8V76.6h11.4V91.35h-6.284Z" transform="translate(-32.905 -56.025)" fill="#efefef"/>
      <path id="Path_9" data-name="Path 9" d="M167.174,88.5a4.192,4.192,0,0,0,2.264-.583,4.685,4.685,0,0,0,1.521-1.542,7.02,7.02,0,0,0,.86-2.2,12.114,12.114,0,0,0,.275-2.616V67.3H179.7V81.549a19.125,19.125,0,0,1-.741,5.406,11.782,11.782,0,0,1-2.3,4.352,10.894,10.894,0,0,1-3.923,2.889,13.56,13.56,0,0,1-5.562,1.052,13.235,13.235,0,0,1-5.679-1.111,10.869,10.869,0,0,1-3.883-2.986,11.985,11.985,0,0,1-2.225-4.352,19.076,19.076,0,0,1-.7-5.25V67.3H162.3V81.549a12.6,12.6,0,0,0,.271,2.634,7.084,7.084,0,0,0,.86,2.224,4.52,4.52,0,0,0,1.5,1.523,4.189,4.189,0,0,0,2.244.565M159.642,59.69h6.088v5.465h-6.088Zm8.977,0h6.088v5.465h-6.088Z" transform="translate(-18.108 -59.69)" fill="#efefef"/>
      <path id="Path_10" data-name="Path 10" d="M193.125,84.15a6.063,6.063,0,0,1-2.926,5.426,10.131,10.131,0,0,1-3.184,1.269,17.409,17.409,0,0,1-3.844.409H169.547V63.54h16.082a5.48,5.48,0,0,1,2.616.625,6.548,6.548,0,0,1,1.991,1.619,7.431,7.431,0,0,1,1.269,2.264,7.741,7.741,0,0,1,.447,2.594,7.509,7.509,0,0,1-.995,3.729,6.238,6.238,0,0,1-2.984,2.673,6.756,6.756,0,0,1,5.151,7.1M177.16,70.02v4.253h5.192a2.5,2.5,0,0,0,1.424-.427,1.933,1.933,0,0,0,.645-1.718,2.076,2.076,0,0,0-.548-1.619,1.864,1.864,0,0,0-1.287-.488ZM185.4,82.586a2.638,2.638,0,0,0-.544-1.695,1.729,1.729,0,0,0-1.406-.684H177.16v4.647h6.011a2.274,2.274,0,0,0,1.582-.587,2.153,2.153,0,0,0,.643-1.681" transform="translate(-3.581 -55.927)" fill="#efefef"/>
      <path id="Path_11" data-name="Path 11" d="M183.168,91.252V63.54h12.726a8.412,8.412,0,0,1,3.747.838,9.721,9.721,0,0,1,2.948,2.185,10.2,10.2,0,0,1,1.93,3.083,9.219,9.219,0,0,1,.7,3.5,9.872,9.872,0,0,1-1.054,4.508,9.208,9.208,0,0,1-2.928,3.415L207.1,91.252h-8.589l-4.878-8.508h-2.849v8.508Zm7.613-15.144h4.8a1.682,1.682,0,0,0,1.307-.781,3.493,3.493,0,0,0,.607-2.185,3.152,3.152,0,0,0-.7-2.207,1.971,1.971,0,0,0-1.406-.761h-4.605Z" transform="translate(9.731 -55.927)" fill="#efefef"/>
      <path id="Path_12" data-name="Path 12" d="M209.536,91.526a13.89,13.89,0,0,1-13.252-8.841,12.6,12.6,0,0,1-.917-4.548,14.929,14.929,0,0,1,.079-1.5c.053-.508.1-.957.158-1.347h19.71a5.979,5.979,0,0,0-.645-2.343,5.036,5.036,0,0,0-3.065-2.517,6.864,6.864,0,0,0-1.989-.293,6.3,6.3,0,0,0-3.1.821,4.729,4.729,0,0,0-1.19.955,3.538,3.538,0,0,0-.742,1.309l-7.925-2.227a12.981,12.981,0,0,1,2.009-3.083,11.868,11.868,0,0,1,2.871-2.383,14.609,14.609,0,0,1,3.648-1.521,16.491,16.491,0,0,1,4.352-.546,13.714,13.714,0,0,1,6.031,1.267,14.111,14.111,0,0,1,4.413,3.239,14.255,14.255,0,0,1,2.711,4.372,12.891,12.891,0,0,1,.937,4.7,15.88,15.88,0,0,1-.9,5.21,13.741,13.741,0,0,1-7.124,7.984,13.656,13.656,0,0,1-6.07,1.287m.119-6.636a6.153,6.153,0,0,0,3.688-1.054,4.371,4.371,0,0,0,1.778-2.968H203.8a4.365,4.365,0,0,0,1.932,2.968,6.923,6.923,0,0,0,3.923,1.054" transform="translate(21.653 -56.003)" fill="#efefef"/>
    </g>
  </g>
</svg>
