<svg xmlns="http://www.w3.org/2000/svg" width="27.673" height="27.673" viewBox="0 0 27.673 27.673">
  <g id="headphones" transform="translate(-2 -2)">
    <path id="Path_13" data-name="Path 13" d="M3,24.394V15.837a12.837,12.837,0,1,1,25.673,0v8.558" fill="none" stroke="#fff" stroke-linecap="round" stroke-linejoin="round" stroke-width="2"/>
    <path id="Path_14" data-name="Path 14" d="M28.673,21.131a2.853,2.853,0,0,1-2.853,2.853H24.394a2.853,2.853,0,0,1-2.853-2.853V16.853A2.853,2.853,0,0,1,24.394,14h4.279ZM3,21.131a2.853,2.853,0,0,0,2.853,2.853H7.279a2.853,2.853,0,0,0,2.853-2.853V16.853A2.853,2.853,0,0,0,7.279,14H3Z" transform="translate(0 4.689)" fill="none" stroke="#fff" stroke-linecap="round" stroke-linejoin="round" stroke-width="2"/>
  </g>
</svg>
