<svg id="instagram_2_" data-name="instagram (2)" xmlns="http://www.w3.org/2000/svg" width="10.467" height="10.476" viewBox="0 0 10.467 10.476">
  <path id="Path_33" data-name="Path 33" d="M8.367,3.135c-2.144,0-4.179-.191-4.957,1.8a10.3,10.3,0,0,0-.275,3.427,10.919,10.919,0,0,0,.275,3.427c.776,2,2.828,1.805,4.956,1.805,2.053,0,4.169.214,4.956-1.805A10.287,10.287,0,0,0,13.6,8.367c0-2.044.113-3.363-.878-4.354s-2.361-.878-4.353-.878ZM7.9,4.078c4.472-.007,5.041-.5,4.727,6.4-.112,2.442-1.971,2.174-4.257,2.174-4.168,0-4.288-.119-4.288-4.289,0-4.218.331-4.284,3.819-4.288Zm3.261.868a.628.628,0,1,0,.628.628A.628.628,0,0,0,11.159,4.947Zm-2.793.734a2.687,2.687,0,1,0,2.686,2.687A2.687,2.687,0,0,0,8.367,5.681Zm0,.943a1.744,1.744,0,0,1,0,3.488A1.744,1.744,0,0,1,8.367,6.623Z" transform="translate(-3.133 -3.13)" fill="#6a6a6a"/>
</svg>
