<svg xmlns="http://www.w3.org/2000/svg" width="9.708" height="9.277" viewBox="0 0 9.708 9.277">
  <g id="linkedin_1_" data-name="linkedin (1)" transform="translate(0)">
    <g id="Group_70" data-name="Group 70" transform="translate(0 0)">
      <path id="Path_52" data-name="Path 52" d="M36.776,29.656v3.59H34.695V29.9c0-.841-.3-1.415-1.054-1.415a1.138,1.138,0,0,0-1.068.761,1.424,1.424,0,0,0-.069.507v3.5H30.423s.028-5.672,0-6.259H32.5v.887c0,.007-.01.014-.014.02H32.5v-.02a2.066,2.066,0,0,1,1.876-1.034c1.369,0,2.4.895,2.4,2.817Zm-8.53-5.687a1.085,1.085,0,1,0-.027,2.163h.014a1.085,1.085,0,1,0,.014-2.163Zm-1.054,9.277h2.081V26.986H27.192Z" transform="translate(-27.068 -23.969)" fill="#6a6a6a"/>
    </g>
  </g>
</svg>
