<svg id="Group_48" data-name="Group 48" xmlns="http://www.w3.org/2000/svg" width="76.885" height="50.747" viewBox="0 0 76.885 50.747">
  <path id="Path_75" data-name="Path 75" d="M255.729,1141.712a18.5,18.5,0,0,0-18,14.489l.579-.062a16.06,16.06,0,0,1,1.655-.094,16.288,16.288,0,0,1,31.528,0,16.018,16.018,0,0,1,1.655.094l.584.062a18.519,18.519,0,0,0-18-14.489" transform="translate(-217.29 -1141.712)" fill="#f36813"/>
  <path id="Path_76" data-name="Path 76" d="M251.9,1144.085a12.084,12.084,0,0,0-11.9,10.053h2.237a9.921,9.921,0,0,1,19.316,0H263.8a12.082,12.082,0,0,0-11.893-10.053" transform="translate(-213.464 -1137.729)" fill="#f36813"/>
  <path id="Path_77" data-name="Path 77" d="M241.938,1163.437l-.029,0,0-.038c-.182-.2-.359-.4-.53-.608-2.727-3.367-3.857-8.317-3.737-14.513l.008-.7.63-.008c5.389-.083,9.581,1.406,12.466,4.607s4.412,8.055,4.5,14.722l.008.7c-.212.01-.423.018-.635.027-5.791.252-9.924-1.24-12.675-4.195" transform="translate(-217.455 -1131.877)" fill="#4a9a3b"/>
  <path id="Path_78" data-name="Path 78" d="M258,1163.437l.029,0,0-.038c.182-.2.359-.4.528-.608,2.732-3.367,3.86-8.317,3.739-14.513,0-.233,0-.466-.008-.7l-.627-.008c-5.392-.083-9.584,1.406-12.469,4.607s-4.412,8.055-4.495,14.722l-.008.7c.209.01.421.018.632.027,5.791.252,9.927-1.24,12.675-4.195" transform="translate(-205.598 -1131.877)" fill="#4a9a3b"/>
  <path id="Path_79" data-name="Path 79" d="M237.049,1159.03c-.351-1.267-.967-2.695-2.668-2.695a2.075,2.075,0,0,0-2.221,2.14c0,1.39.927,2.063,2.574,2.856,1.706.838,3.485,1.768,3.485,3.935,0,2.116-1.8,3.8-4.551,3.8a6.249,6.249,0,0,1-2.022-.324,6.469,6.469,0,0,1-1-.418,30.767,30.767,0,0,1-.552-3.139l.608-.177c.337,1.256,1.318,3.316,3.38,3.316a2.15,2.15,0,0,0,2.33-2.317c0-1.428-1.079-2.1-2.614-2.909-1.4-.7-3.327-1.682-3.327-3.854,0-1.966,1.591-3.6,4.216-3.6a8.662,8.662,0,0,1,2.614.472c.08.7.174,1.511.351,2.8Z" transform="translate(-230.098 -1118.32)" fill="#464a49"/>
  <path id="Path_80" data-name="Path 80" d="M245.465,1157.548c-.836.049-1.2.26-1.262.836a22.3,22.3,0,0,0-.086,2.234v1.106a5.1,5.1,0,0,1-1.106,3.753,3.68,3.68,0,0,1-2.647.989,3.837,3.837,0,0,1-2.365-.683c-.887-.654-1.31-1.72-1.31-3.415v-3.356c0-1.3-.126-1.366-1.262-1.463v-.423h3.857v.423c-1.125.067-1.248.156-1.248,1.463v3.067c0,2.322.972,3.592,2.722,3.592,2.041,0,2.746-1.639,2.746-3.975v-1.077a13.7,13.7,0,0,0-.115-2.271c-.08-.539-.407-.732-1.4-.8v-.423h3.474Z" transform="translate(-221.151 -1115.839)" fill="#464a49"/>
  <path id="Path_81" data-name="Path 81" d="M250.99,1157.548c-.8.038-1.144.2-1.211.844a22.981,22.981,0,0,0-.083,2.4v5.63h-.463l-6.324-7.336h-.019l-.008,3.434a22.721,22.721,0,0,0,.094,2.368c.067.734.394.906,1.385.983v.4h-3.445v-.4c.828-.059,1.195-.238,1.259-.943a17.706,17.706,0,0,0,.121-2.408V1159.5c0-1.028-.054-1.109-.311-1.446a1.588,1.588,0,0,0-1.28-.507v-.423h2.213l6.131,6.946h.037v-3.279a22.938,22.938,0,0,0-.094-2.349c-.067-.664-.4-.846-1.438-.895v-.423h3.437Z" transform="translate(-212.294 -1115.839)" fill="#464a49"/>
  <path id="Path_82" data-name="Path 82" d="M251.18,1159.459c-.252-.906-.694-1.926-1.9-1.926a1.488,1.488,0,0,0-1.591,1.535c0,.991.664,1.468,1.838,2.036,1.227.6,2.494,1.264,2.494,2.812,0,1.514-1.288,2.714-3.249,2.714a4.38,4.38,0,0,1-1.444-.23,4.11,4.11,0,0,1-.713-.3,20.4,20.4,0,0,1-.4-2.24l.434-.126c.238.892.94,2.366,2.413,2.366a1.535,1.535,0,0,0,1.666-1.653c0-1.023-.769-1.5-1.867-2.079-1-.5-2.376-1.205-2.376-2.754,0-1.406,1.136-2.569,3.011-2.569a6.131,6.131,0,0,1,1.867.338c.056.5.123,1.077.249,2Z" transform="translate(-203.045 -1115.972)" fill="#464a49"/>
  <path id="Path_83" data-name="Path 83" d="M257.556,1163.994c-.1.53-.375,1.83-.5,2.282h-7.064v-.407c1.3-.094,1.425-.228,1.425-1.382v-5.516c0-1.288-.126-1.328-1.243-1.425v-.42H256.7c.021.362.075,1.3.131,2.087l-.439.056a3.943,3.943,0,0,0-.471-1.221c-.212-.308-.608-.4-1.6-.4h-1.066c-.471,0-.5.04-.5.463v3.156h1.315c1.294,0,1.388-.115,1.572-1.067h.431v2.759h-.431c-.2-1.026-.308-1.106-1.572-1.106h-1.315v2.587c0,.665.075.98.346,1.16a3.635,3.635,0,0,0,1.473.158c1.05,0,1.481-.094,1.811-.461a5.058,5.058,0,0,0,.731-1.356Z" transform="translate(-196.703 -1115.837)" fill="#464a49"/>
  <path id="Path_84" data-name="Path 84" d="M265.5,1159.248a4.723,4.723,0,0,0-.689-1.843c-.335-.458-.688-.608-2.223-.608h-1.377v9.608c0,1.562.179,1.792,2.092,1.913v.565h-5.971v-.565c1.848-.121,2.022-.34,2.022-1.913V1156.8h-1.171c-1.755,0-2.17.19-2.44.608a6.012,6.012,0,0,0-.686,1.843h-.605c.091-1.28.188-2.585.228-3.675h.431c.295.5.552.5,1.144.5h8.167a1.091,1.091,0,0,0,1.047-.5h.431c0,.9.107,2.424.2,3.611Z" transform="translate(-189.218 -1118.445)" fill="#464a49"/>
  <path id="Path_85" data-name="Path 85" d="M238.331,1150.576a19.45,19.45,0,0,0,.63,2.3l5.454-.45-1.674-1.948Z" transform="translate(-216.278 -1126.995)" fill="#fff"/>
  <path id="Path_86" data-name="Path 86" d="M240.235,1148.43a13,13,0,0,1,2.231.964l-.316,5.464-1.915-2.223Z" transform="translate(-213.082 -1130.435)" fill="#fff"/>
  <path id="Path_87" data-name="Path 87" d="M238.777,1152.213a12.487,12.487,0,0,0,1.631,2.662l.094.11,6.6-.632-2.269-2.641Z" transform="translate(-215.529 -1124.926)" fill="#fff"/>
  <path id="Path_88" data-name="Path 88" d="M241.758,1149.089a11.435,11.435,0,0,1,1.736,1.57,11.7,11.7,0,0,1,.774.953l-.691,6.083-2.172-2.529Z" transform="translate(-211.119 -1129.329)" fill="#fff"/>
  <path id="Path_89" data-name="Path 89" d="M239.912,1153.818c2.253,1.9,5.376,2.928,9.509,2.952l-3.072-3.571Z" transform="translate(-213.624 -1122.429)" fill="#fff"/>
  <path id="Path_90" data-name="Path 90" d="M243.283,1150.7a22.544,22.544,0,0,1,2.162,8.885l-2.8-3.254Z" transform="translate(-209.036 -1126.625)" fill="#fff"/>
  <path id="Path_91" data-name="Path 91" d="M238.113,1148.312a32.643,32.643,0,0,0,.327,4.463l3.447-.073Z" transform="translate(-216.644 -1130.635)" fill="#fff"/>
  <path id="Path_92" data-name="Path 92" d="M241.64,1151.636l-3.013-3.506a19.414,19.414,0,0,1,3.013.439Z" transform="translate(-215.781 -1130.938)" fill="#fff"/>
  <path id="Path_93" data-name="Path 93" d="M253.152,1148.312a32.621,32.621,0,0,1-.329,4.463l-3.445-.073Z" transform="translate(-197.734 -1130.635)" fill="#fff"/>
  <path id="Path_94" data-name="Path 94" d="M254.379,1150.576a19.45,19.45,0,0,1-.629,2.3l-5.454-.45,1.674-1.948Z" transform="translate(-199.55 -1126.995)" fill="#fff"/>
  <path id="Path_95" data-name="Path 95" d="M250.061,1148.43a13.1,13.1,0,0,0-2.231.964l.319,5.464,1.913-2.223Z" transform="translate(-200.332 -1130.435)" fill="#fff"/>
  <path id="Path_96" data-name="Path 96" d="M249.146,1151.636l3.014-3.506a19.366,19.366,0,0,0-3.014.439Z" transform="translate(-198.123 -1130.938)" fill="#fff"/>
  <path id="Path_97" data-name="Path 97" d="M255.339,1152.213a12.493,12.493,0,0,1-1.634,2.662l-.094.11-6.6-.632,2.269-2.641Z" transform="translate(-201.702 -1124.926)" fill="#fff"/>
  <path id="Path_98" data-name="Path 98" d="M248.936,1149.089a11.289,11.289,0,0,0-1.733,1.57,11.734,11.734,0,0,0-.777.953l.691,6.083,2.172-2.529Z" transform="translate(-202.689 -1129.329)" fill="#fff"/>
  <path id="Path_99" data-name="Path 99" d="M254.946,1153.818c-2.253,1.9-5.376,2.928-9.509,2.952l3.07-3.571Z" transform="translate(-204.349 -1122.429)" fill="#fff"/>
  <path id="Path_100" data-name="Path 100" d="M247.371,1150.7a22.681,22.681,0,0,0-2.164,8.885l2.8-3.254Z" transform="translate(-204.735 -1126.625)" fill="#fff"/>
</svg>
