<svg id="Group_68" data-name="Group 68" xmlns="http://www.w3.org/2000/svg" width="119.14" height="36.2" viewBox="0 0 119.14 36.2">
  <path id="Path_176" data-name="Path 176" d="M591.724,1164.321a4.723,4.723,0,0,1-4.48-4.837,2.158,2.158,0,0,1,.021-.371,4.112,4.112,0,0,1,3.841-3.878,4.754,4.754,0,0,1,4.33,4.812,4.03,4.03,0,0,1-3.712,4.275m5.914-4.837c0-3.617-3.488-5.417-5.862-5.417a6.717,6.717,0,0,0-6.716,5.208,5.42,5.42,0,0,0-.055.771,5.681,5.681,0,0,0,5.711,5.42h.129c2.853,0,6.792-1.729,6.792-5.982m-22.3-2.263a5.7,5.7,0,0,1,.114-1.52.743.743,0,0,1,.071-.163h1.962c.9,0,2.334.163,2.334,1.634,0,1.449-1.234,1.775-2.146,1.775-.691,0-1.213-.022-1.661-.022h-.672Zm-2.014,5.066a5.539,5.539,0,0,1-.114,1.517,1.235,1.235,0,0,1-1.062.679c-.055,0-.651.049-.651.282,0,.255.3.255.574.255h4.517c.282,0,.58,0,.58-.255,0-.233-.6-.282-.654-.282a1.235,1.235,0,0,1-1.062-.679,5.677,5.677,0,0,1-.114-1.517v-2.312c.691.024,1.121.024,1.812.024h.67a.5.5,0,0,0,.077.117,21.12,21.12,0,0,0,2.349,3.479c1.231,1.45,2.672,2.849,4.536,2.849h.823c.353,0,.688-.092.688-.255s-.166-.141-.578-.233a5.958,5.958,0,0,1-2.595-1.637,22.545,22.545,0,0,1-3.1-4.484l-.052-.095a2.558,2.558,0,0,0,2.18-2.521c-.019-2.687-3.117-2.736-4.833-2.736h-5.245c-.276,0-.574,0-.574.258,0,.233.6.279.651.279a1.242,1.242,0,0,1,1.062.679,5.566,5.566,0,0,1,.114,1.52Zm-9.71,0a5.591,5.591,0,0,1-.111,1.517,1.235,1.235,0,0,1-1.062.679c-.055,0-.651.049-.651.282,0,.255.295.255.574.255h4.517c.282,0,.577,0,.577-.255,0-.233-.6-.282-.651-.282a1.235,1.235,0,0,1-1.062-.679,5.544,5.544,0,0,1-.113-1.517v-6.774H568.5c.875,0,.989,1.987,1.345,1.987.092,0,.129-.187.129-.47,0-.887-.261-2.705-.6-2.705-.8,0-1.64.16-2.518.16h-4.477c-.878,0-1.72-.16-2.518-.16-.338,0-.6,1.818-.6,2.705,0,.283.037.47.129.47.356,0,.47-1.987,1.345-1.987h2.871Zm-10.45-2.217h-3.23l1.628-3.2Zm3.863,3.071c-.335-.541-.694-1.222-1.29-2.441l-2.76-5.512c-.3-.586-1.01-.7-1.775-.7h-1.545c-.132,0-.187.117-.187.233s.055.236.187.236a1.486,1.486,0,0,1,1.25.629l-3.323,6.615a3.942,3.942,0,0,1-2.426,2.327c-.055.025-.522.117-.522.3,0,.049.055.191.335.191h4.815a.184.184,0,0,0,.206-.163c0-.35-1.569-.233-1.569-1.4a2.169,2.169,0,0,1,.319-1.05l.706-1.354h4.2l1.084,2.242a1.577,1.577,0,0,1,.151.587c0,.6-1.195.442-1.195.817,0,.325.632.325.915.325h4.2c.221,0,.485,0,.485-.255,0-.445-1.047.231-2.257-1.636Zm-20.454-5.92a5.765,5.765,0,0,1,.11-1.52c.393-.983,1.72-.467,1.72-.958,0-.258-.3-.258-.58-.258h-4.591c-.28,0-.58,0-.58.258,0,.7,1.83-.467,1.83,2.011v3.2c0,4.25,2.536,5.533,5.113,5.533,2.705,0,4.609-2.755,4.609-5.77v-2.963c0-2.546,1.827-1.308,1.827-2.011,0-.258-.3-.258-.577-.258h-3.716c-.276,0-.577,0-.577.258,0,.7,1.83-.467,1.83,2.011v3.15c0,2.5-1.588,4.37-3.4,4.37-1.753,0-3.022-2.245-3.022-4.416Zm-12.9,7.078a6.052,6.052,0,0,1-5.785-6.1,5.314,5.314,0,0,1,4.926-5.558,6.091,6.091,0,0,1,5.822,6.141,5.263,5.263,0,0,1-4.962,5.515m4.683-11.306a7.855,7.855,0,0,0-4.759-1.517c-3.415,0-8.024,2.546-8.024,7.287,0,4.459,4.161,6.725,7.127,6.725a8.693,8.693,0,0,0,4.053-.955c2.721,2.054,5.4,4.148,8.948,4.148a9.03,9.03,0,0,0,4.944-1c.261-.163.393-.282.393-.4,0-.092-.1-.16-.224-.16a.991.991,0,0,0-.261.068l-.375.117a10.648,10.648,0,0,1-3.227.35c-3.4,0-5.687-2.186-8.426-4.336a7.544,7.544,0,0,0,2.445-5.091,6.688,6.688,0,0,0-2.613-5.232" transform="translate(-478.498 -1132.481)" fill="#006cbb"/>
  <path id="Path_177" data-name="Path 177" d="M570.9,1159.619a5.125,5.125,0,0,1-4.861-5.248,3.005,3.005,0,0,1,.018-.405,4.467,4.467,0,0,1,4.173-4.21,5.161,5.161,0,0,1,4.7,5.223,4.374,4.374,0,0,1-4.029,4.64m6.418-5.248c0-3.931-3.786-5.884-6.359-5.884a7.292,7.292,0,0,0-7.29,5.656,5.466,5.466,0,0,0-.061.835,6.167,6.167,0,0,0,6.2,5.883h.144c3.1,0,7.37-1.876,7.37-6.491m-24.246-2.46a6.207,6.207,0,0,1,.123-1.649.658.658,0,0,1,.08-.178H555.4c.971,0,2.53.178,2.53,1.778,0,1.569-1.339,1.925-2.328,1.925-.749,0-1.32-.024-1.806-.024h-.728Zm-2.186,5.5a6.174,6.174,0,0,1-.123,1.646,1.351,1.351,0,0,1-1.155.737c-.062,0-.709.049-.709.3,0,.279.326.279.63.279h4.9c.3,0,.626,0,.626-.279,0-.255-.648-.3-.706-.3a1.347,1.347,0,0,1-1.155-.737,6.173,6.173,0,0,1-.123-1.646v-2.509c.749.025,1.213.025,1.965.025h.731a.519.519,0,0,0,.08.126,22.791,22.791,0,0,0,2.552,3.777c1.336,1.572,2.9,3.1,4.922,3.1h.891c.387,0,.749-.1.749-.279s-.184-.154-.626-.255a6.448,6.448,0,0,1-2.816-1.775,24.312,24.312,0,0,1-3.362-4.867l-.061-.1a2.777,2.777,0,0,0,2.371-2.739c-.022-2.914-3.381-2.967-5.248-2.967h-5.69c-.3,0-.63,0-.63.28,0,.252.648.3.709.3a1.348,1.348,0,0,1,1.155.734,6.207,6.207,0,0,1,.123,1.649Zm-4.643.052a6.206,6.206,0,0,1,.123-1.649,1.355,1.355,0,0,1,1.155-.737c.061,0,.709-.049.709-.3,0-.279-.325-.279-.626-.279h-4.9c-.3,0-.626,0-.626.279,0,.255.648.3.706.3a1.351,1.351,0,0,1,1.155.737,6.057,6.057,0,0,1,.123,1.649v1.342a4.456,4.456,0,0,1-2.8.86,4.8,4.8,0,0,1-4.717-5.017,4.9,4.9,0,0,1,4.781-5.048c1.861,0,3.765.38,4.293,3.071.04.15.12.227.2.227.445,0,.4-1.063.4-2.281,0-1.142-.08-1.471-.322-1.471a.677.677,0,0,0-.282.077,11.673,11.673,0,0,0-4.336-.737c-2.874,0-7.25,1.575-7.25,6.138a5.948,5.948,0,0,0,.771,2.813c1.455,2.634,4.17,3.347,6.541,3.347,1.4,0,4.9-.353,4.9-1.978Zm-19.791-3.755h-4.821l2.432-4.766Zm4.984,4.616a7.77,7.77,0,0,1-.608-1.066l-4.68-9.3c-.608-1.195-1.154-1.723-2.349-1.723h-1.9c-.282,0-.365.126-.365.227s.12.2.3.255a1.455,1.455,0,0,0,.427.046,1.628,1.628,0,0,1,1.072.712l-5.773,11.205a2.307,2.307,0,0,1-1.9,1.142.853.853,0,0,0-.547.252c0,.154.123.255.507.307h5.063c.286,0,.427-.1.427-.255,0-.052-.064-.151-.307-.252-.546-.178-.789-.255-.789-.255-.365-.126-.688-.28-.688-.709a11.93,11.93,0,0,1,1.053-2.69l.568-1.139h6.2l1.072,2.131a4.747,4.747,0,0,1,.626,1.95c0,.458-.528.66-.771.66-.279,0-.424.153-.424.279,0,.154.144.279.424.279h4.741a5.409,5.409,0,0,0,1.115-.126c0-.28-.261-.356-.666-.482a2.742,2.742,0,0,1-1.824-1.446" transform="translate(-479.457 -1143.335)" fill="#006cbb"/>
  <path id="Path_178" data-name="Path 178" d="M523.478,1166.106c-1.667-3.986-3.851-9.166-5.374-12.765-2.109,5.045-4.29,9.7-6.043,14.361-.261.713-.494,1.363-.7,1.965a14.48,14.48,0,0,0-.4,1.437c-.359,1.75-.626,3.612,1.391,4.182H503.5c2.183-.252,4.262-2.874,5.214-5.064,1.591-3.651,2.874-6.491,4.79-11.054s3.627-8.61,5.125-12.173h1.784l6.375,15.342a8.831,8.831,0,0,1-3.181,3.7c-.043.021-.083.046-.129.067" transform="translate(-503.5 -1141.756)" fill="#006cbb"/>
  <path id="Path_179" data-name="Path 179" d="M534.081,1178.822H523.331c1.864-.323,2.122-1.928,1.431-3.482-.553-1.339-.583-1.444-1.179-2.853a16.119,16.119,0,0,1-10.926-.187c-.347-.139-.688-.286-1.016-.449.3-.749.617-1.526.949-2.318a8.076,8.076,0,0,0,1.692,1.225,8.554,8.554,0,0,0,4.127.93,8.657,8.657,0,0,0,4.063-.946,7.852,7.852,0,0,0,2.942-2.641,11.72,11.72,0,0,0,1.713-3.9,21.826,21.826,0,0,0-.061-9.918,11.82,11.82,0,0,0-1.75-3.931,8.124,8.124,0,0,0-2.911-2.5,8.641,8.641,0,0,0-3.995-.9,8.309,8.309,0,0,0-4.293,1.041,8.459,8.459,0,0,0-2.883,2.779,12.5,12.5,0,0,0-1.566,3.894,20.681,20.681,0,0,0-.519,4.679,20.161,20.161,0,0,0,.547,4.916,14.074,14.074,0,0,0,.421,1.373c-.279.645-.534,1.231-.768,1.766v0c-.292.672-.617,1.412-.976,2.226-.083-.083-.166-.16-.249-.24a13.08,13.08,0,0,1-2.972-4.449,15.264,15.264,0,0,1,.052-11.413,13.536,13.536,0,0,1,7.729-7.25,15.413,15.413,0,0,1,5.478-.985,15.693,15.693,0,0,1,5.592,1,13.621,13.621,0,0,1,4.542,2.816,13.023,13.023,0,0,1,3.1,4.459,14.727,14.727,0,0,1,1.112,5.782,14.383,14.383,0,0,1-1.136,5.8,12.777,12.777,0,0,1-3.157,4.431c-.279.258-.568.507-.866.74l1.821,4.188c1.7,3.986,3.986,4.026,4.671,4.321" transform="translate(-502.324 -1145.29)" fill="#33a437"/>
</svg>
