<svg id="Group_41" data-name="Group 41" xmlns="http://www.w3.org/2000/svg" width="137.697" height="32.103" viewBox="0 0 137.697 32.103">
  <path id="Path_34" data-name="Path 34" d="M73.177,1156.315h4.81v-2.368h-4.81V1151.9h8.245v-2.367H70.329v11.672h11.2v-2.5H73.177Z" transform="translate(-26.395 -1139.318)" fill="#002b52"/>
  <path id="Path_35" data-name="Path 35" d="M103.625,1150.106s-3.827,5.184-4.131,5.6c-.307-.413-4.131-5.6-4.131-5.6H93.43v9.648h2.488v-5.538c.6.823,3.269,4.431,3.269,4.431H99.8l3.269-4.431v5.538h2.484v-9.648Z" transform="translate(32.142 -1137.867)" fill="#002b52"/>
  <path id="Path_36" data-name="Path 36" d="M91.919,1156.538v-6.432H89.435v9.648h1.944s6.456-5.856,7.089-6.429v6.429h2.488v-9.648H99s-6.453,5.856-7.086,6.432" transform="translate(22.019 -1137.867)" fill="#002b52"/>
  <path id="Path_37" data-name="Path 37" d="M98.311,1149.533H94.932l-3.082,3.7c-.286-.329-3.241-3.7-3.241-3.7H84.8s4.979,5.4,5.248,5.69c-.262.3-5.142,5.983-5.142,5.983h3.453s3.145-3.888,3.424-4.238c.3.336,3.721,4.238,3.721,4.238h3.9l-5.835-6.3,4.746-5.375" transform="translate(10.267 -1139.319)" fill="#002b52"/>
  <path id="Path_38" data-name="Path 38" d="M83.359,1154.794a1.962,1.962,0,0,0,.477-.335,1.678,1.678,0,0,0,.474-1.234v-1.106a2.014,2.014,0,0,0-.512-1.5,2.458,2.458,0,0,0-1.721-.516H74.185v9.651h7.467a3.4,3.4,0,0,0,1.933-.47,1.776,1.776,0,0,0,.788-1.558v-1.177a1.866,1.866,0,0,0-1.014-1.756m-6.686-2.71h4.435c.5,0,.594.081.6.085a.475.475,0,0,1,.12.339v.869c0,.177-.018.24-.088.3a1.036,1.036,0,0,1-.629.117H76.673Zm5.213,4.99a.624.624,0,0,1-.131.459.87.87,0,0,1-.587.138h-4.5v-1.89h4.456c.428,0,.562.078.629.137a.633.633,0,0,1,.127.459Z" transform="translate(-16.623 -1137.87)" fill="#002b52"/>
  <path id="Path_39" data-name="Path 39" d="M85.611,1150.106H77.7v9.648h2.488v-3.566h5.425a2.473,2.473,0,0,0,1.65-.459,1.985,1.985,0,0,0,.562-1.551v-2.06c0-.94-.251-2.011-2.212-2.011m-.152,3.488c0,.219-.025.308-.12.382a.777.777,0,0,1-.495.131H80.187v-1.915h4.538a.944.944,0,0,1,.622.138.453.453,0,0,1,.113.371Z" transform="translate(-7.719 -1137.867)" fill="#002b52"/>
  <path id="Path_40" data-name="Path 40" d="M92.13,1150.647a2.82,2.82,0,0,0-1.944-.541H83.5a2.532,2.532,0,0,0-1.823.495,2.776,2.776,0,0,0-.53,1.905v4.845a2.914,2.914,0,0,0,.484,1.859,2.622,2.622,0,0,0,1.947.545h6.612a2.517,2.517,0,0,0,1.951-.569,2.694,2.694,0,0,0,.484-1.721v-4.958a2.754,2.754,0,0,0-.491-1.859m-2,6.912H83.627V1152.3h6.506Z" transform="translate(1.008 -1137.867)" fill="#002b52"/>
  <path id="Path_41" data-name="Path 41" d="M59.51,1162.692l12.2,16.048v-11.8a4.389,4.389,0,0,1,.389-8.562,4.232,4.232,0,0,1,3.636,4.315H83.9l-12.189-16.047v11.719a4.187,4.187,0,0,0-4.025,4.329Z" transform="translate(-53.809 -1146.637)" fill="#002b52"/>
  <path id="Path_42" data-name="Path 42" d="M65.8,1146.643l-.131.169L77.861,1162.7H73.641L63.559,1175.97l2.113,2.774L79.345,1162.7Z" transform="translate(-43.549 -1146.643)" fill="#002b52"/>
  <path id="Path_43" data-name="Path 43" d="M73.686,1149.42l-2.11-2.777L57.9,1162.7l13.57,16.047.113-.152-12.2-15.9H63.6Z" transform="translate(-57.897 -1146.642)" fill="#002b52"/>
</svg>
