<svg xmlns="http://www.w3.org/2000/svg" xmlns:xlink="http://www.w3.org/1999/xlink" width="120.804" height="62.185" viewBox="0 0 120.804 62.185">
  <defs>
    <clipPath id="clip-path">
      <rect id="Rectangle_56" data-name="Rectangle 56" width="120.804" height="62.185" fill="none"/>
    </clipPath>
  </defs>
  <g id="Group_43" data-name="Group 43" transform="translate(0)">
    <g id="Group_42" data-name="Group 42" transform="translate(0)" clip-path="url(#clip-path)">
      <path id="Path_44" data-name="Path 44" d="M117.9,1156.7c1.148.008,2.3.019,3.442.022a7.3,7.3,0,0,1,1.795.146,3.209,3.209,0,0,1-.291,6.25,11.652,11.652,0,0,1-1.938.059c-.24,0-.3.07-.3.3.013.838-.005,1.685.013,2.52.005.288-.048.393-.367.383-.784-.024-1.568,0-2.353,0Zm2.711,3.258c0,.3,0,.617,0,.919,0,.119.014.2.164.192a6.418,6.418,0,0,0,1.016-.038.992.992,0,0,0,.9-1.188.963.963,0,0,0-1.016-.965c-.127-.011-.251-.019-.377-.022-.685-.011-.685-.011-.685.663v.439" transform="translate(-98.385 -1110.753)" fill="#003887"/>
      <path id="Path_45" data-name="Path 45" d="M133.705,1142.074a1.206,1.206,0,0,0,.469.146,3.532,3.532,0,1,1-1.771-.07c.073-.019.164.014.213-.076Z" transform="translate(-78.506 -1135.536)" fill="#00498e"/>
      <path id="Path_46" data-name="Path 46" d="M136.69,1142.074a1.287,1.287,0,0,0,.469.146,3.54,3.54,0,1,1-4.5,3.94,3.517,3.517,0,0,1,2.859-4.027.7.7,0,0,0,.151-.059Z" transform="translate(-73.438 -1135.536)" fill="#00498e"/>
      <path id="Path_47" data-name="Path 47" d="M125.034,1150.323c1.3-.024,2.544.035,3.795.094,1.655.076,3.312.175,4.962.383a11.546,11.546,0,0,1,10.5,9.856c.027.135.051.27.067.4.073.628.07.636-.582.646-1.582.022-3.161.046-4.743.063a12.042,12.042,0,0,1-8.282-3.2,22.056,22.056,0,0,1-5.654-8.077c-.013-.043-.03-.083-.065-.167" transform="translate(-86.288 -1121.562)" fill="#009c3b"/>
      <path id="Path_48" data-name="Path 48" d="M152.088,1150.32a11.893,11.893,0,0,1-.711,1.607,21.454,21.454,0,0,1-5,6.651,12.332,12.332,0,0,1-6.185,3.032,13.4,13.4,0,0,1-2.412.156c-1.544-.03-3.091-.046-4.635-.07-.426-.006-.45-.019-.385-.437.7-4.606,3-7.983,7.46-9.7a17.016,17.016,0,0,1,4.862-.946q3.335-.258,6.678-.291c.1,0,.2,0,.334,0" transform="translate(-73.248 -1121.561)" fill="#009c3b"/>
      <path id="Path_49" data-name="Path 49" d="M148.183,1166.531c-.431,0-.865-.024-1.294.006a2.387,2.387,0,0,1-1.331-.329,4.616,4.616,0,0,1-2.474-3.546,5.14,5.14,0,0,1,1.455-4.746,4.921,4.921,0,0,1,3.514-1.31,4.991,4.991,0,0,1,4.2,1.776c1.781,2.188,1.493,6.355-1.509,7.856a2.372,2.372,0,0,1-1.237.3c-.442-.027-.884-.006-1.329-.006m2.385-4.945a4.2,4.2,0,0,0-.1-.811,2.337,2.337,0,0,0-4.563-.054,3.861,3.861,0,0,0-.067,1.684,2.376,2.376,0,0,0,2.121,2.07,2.316,2.316,0,0,0,2.428-1.585,3.737,3.737,0,0,0,.178-1.3" transform="translate(-55.836 -1110.906)" fill="#003887"/>
      <path id="Path_50" data-name="Path 50" d="M130.064,1166.531c-.329,0-.66-.027-.986.005a3.362,3.362,0,0,1-2.781-1.183,5.416,5.416,0,0,1,.167-7.47,5.149,5.149,0,0,1,3.805-1.275,4.857,4.857,0,0,1,3.975,1.892,5.481,5.481,0,0,1-.224,6.662,3.437,3.437,0,0,1-2.967,1.375c-.326-.033-.66-.005-.989-.005m-2.382-4.819a3.365,3.365,0,0,0,.078.825,2.341,2.341,0,0,0,2.226,1.943,2.306,2.306,0,0,0,2.353-1.784,3.845,3.845,0,0,0,.049-1.819,2.348,2.348,0,0,0-2.248-1.962,2.31,2.31,0,0,0-2.329,1.768,3.244,3.244,0,0,0-.129,1.029" transform="translate(-86.542 -1110.906)" fill="#003887"/>
      <path id="Path_51" data-name="Path 51" d="M143.158,1160.934c.76,0,1.52.008,2.283,0,.208,0,.291.035.3.27a6.908,6.908,0,0,1-.563,3.221,3.941,3.941,0,0,1-1.348,1.593,2.693,2.693,0,0,1-1.684.531c-.876-.043-1.749-.019-2.628-.008a3.579,3.579,0,0,1-2.439-1.126,4.469,4.469,0,0,1-1.434-3.072,5.619,5.619,0,0,1,.674-3.417,4.569,4.569,0,0,1,3.611-2.264,6.008,6.008,0,0,1,3.328.469,4.3,4.3,0,0,1,1.825,1.6c.116.183.089.25-.108.339-.647.288-1.3.6-1.94.906-.113.051-.194.11-.3-.048a2.411,2.411,0,0,0-4.266.752,3.628,3.628,0,0,0,.164,2.563,2.488,2.488,0,0,0,3.3,1.218,2.013,2.013,0,0,0,1.029-1.126c.075-.2.057-.283-.189-.278-.66.014-1.318,0-1.978.011-.21.005-.272-.051-.267-.267q.024-.8,0-1.6c-.008-.216.065-.267.272-.262.784.011,1.568,0,2.353,0" transform="translate(-68.35 -1110.909)" fill="#003887"/>
      <path id="Path_52" data-name="Path 52" d="M121.18,1161.56c0-1.512.005-3.024-.005-4.536,0-.251.062-.329.321-.323.693.019,1.388.016,2.083,0,.234-.006.31.054.3.3-.013.965,0,1.93-.011,2.9,0,.223.059.286.283.283.911-.013,1.822-.016,2.73,0,.237,0,.28-.081.278-.291-.011-.965,0-1.932-.011-2.895,0-.221.051-.3.28-.294.73.013,1.455.011,2.186,0,.183,0,.256.046.256.248q-.008,4.584,0,9.168c0,.2-.067.248-.253.245-.73-.011-1.458-.013-2.186,0-.226.005-.286-.065-.283-.286.011-1.092,0-2.183.013-3.272,0-.261-.073-.323-.323-.318q-1.318.024-2.628,0c-.264-.005-.348.054-.345.334.019,1.078,0,2.159.013,3.237,0,.229-.048.313-.294.307q-1.059-.028-2.118,0c-.245.006-.3-.078-.3-.31.011-1.5.005-3,.005-4.5" transform="translate(-92.829 -1110.743)" fill="#003887"/>
      <path id="Path_53" data-name="Path 53" d="M145.186,1162.518q1.33,1.9,2.636,3.765c-.059.119-.148.076-.221.076-.911,0-1.819,0-2.73.005a.417.417,0,0,1-.41-.221c-.6-.962-1.218-1.913-1.835-2.87-.113.067-.057.167-.059.245,0,.852-.008,1.7,0,2.558,0,.21-.038.3-.278.291-.714-.016-1.431-.011-2.145,0-.191,0-.286-.022-.286-.253q.008-4.585,0-9.166c0-.172.049-.242.229-.237,1.445.027,2.889-.059,4.328.046a2.711,2.711,0,0,1,2.744,2.447,2.858,2.858,0,0,1-1.781,3.218c-.062.024-.119.059-.2.1m-2.622-2.557v.881c0,.1-.024.216.14.21a4.013,4.013,0,0,0,1.046-.067,1.1,1.1,0,0,0,.046-2.059,3.544,3.544,0,0,0-1.011-.086c-.186-.011-.229.067-.224.237.011.294,0,.59,0,.884" transform="translate(-61.156 -1110.744)" fill="#003887"/>
      <path id="Path_54" data-name="Path 54" d="M140.363,1166.361c-.4,0-.8-.011-1.191.005a.273.273,0,0,1-.31-.232c-.121-.4-.253-.8-.375-1.2-.054-.17-.121-.259-.329-.253q-1.4.016-2.8,0c-.2-.005-.275.078-.326.25-.119.4-.253.8-.372,1.2a.277.277,0,0,1-.31.232c-.784-.014-1.568-.016-2.353,0-.256.005-.3-.052-.21-.3.752-2.088,1.49-4.18,2.231-6.274.331-.93.668-1.851.992-2.784.07-.207.151-.307.4-.3.9.019,1.795.014,2.692,0a.343.343,0,0,1,.393.262q1.6,4.531,3.223,9.061c.094.261.075.355-.232.339-.375-.024-.749-.005-1.127-.005m-3.6-7.339c-.364,1.167-.706,2.267-1.048,3.366-.04.14.019.175.151.172q.9,0,1.8,0c.137,0,.186-.04.145-.178-.345-1.1-.684-2.194-1.051-3.361" transform="translate(-74.909 -1110.741)" fill="#003887"/>
      <path id="Path_55" data-name="Path 55" d="M134.755,1159.556a6.511,6.511,0,0,0-.916-.62,1.967,1.967,0,0,0-.989-.2.815.815,0,0,0-.854.722c-.043.377.154.644.639.8.42.135.854.221,1.277.358a2.843,2.843,0,0,1,2.137,2.07,3.133,3.133,0,0,1-1.636,3.733,1.194,1.194,0,0,1-.52.116c-.844-.005-1.684-.011-2.525,0a1.76,1.76,0,0,1-.819-.189,9.528,9.528,0,0,1-1.507-.986c-.124-.092-.11-.162-.04-.275.361-.563.722-1.129,1.067-1.7.111-.183.178-.129.3-.021a3.958,3.958,0,0,0,1.862,1.075,1.742,1.742,0,0,0,.442.038.814.814,0,0,0,.838-.609.908.908,0,0,0-.439-1.019,3.509,3.509,0,0,0-.889-.331c-.291-.086-.593-.159-.879-.264a2.756,2.756,0,0,1-1.9-3.029,2.807,2.807,0,0,1,2.3-2.5,5.021,5.021,0,0,1,3.765.655c.213.129.24.24.127.456-.288.563-.552,1.137-.833,1.722" transform="translate(-79.653 -1110.908)" fill="#003887"/>
      <path id="Path_56" data-name="Path 56" d="M138.046,1144.427a3.54,3.54,0,1,1-3.563,3.5,3.549,3.549,0,0,1,3.563-3.5" transform="translate(-70.272 -1131.547)" fill="#00498e"/>
      <path id="Path_57" data-name="Path 57" d="M134.836,1147.968a3.544,3.544,0,1,1-3.555-3.541,3.551,3.551,0,0,1,3.555,3.541" transform="translate(-81.687 -1131.547)" fill="#00498e"/>
      <path id="Path_58" data-name="Path 58" d="M134.662,1155.683a3.536,3.536,0,1,1,3.539-3.53,3.529,3.529,0,0,1-3.539,3.53" transform="translate(-75.98 -1124.455)" fill="#00498e"/>
      <path id="Path_59" data-name="Path 59" d="M132,1147.353a3.533,3.533,0,1,1-3.547,3.509,3.541,3.541,0,0,1,3.547-3.509" transform="translate(-80.487 -1126.588)" fill="#00498e"/>
      <path id="Path_60" data-name="Path 60" d="M137.345,1154.419a3.533,3.533,0,1,1,3.563-3.509,3.534,3.534,0,0,1-3.563,3.509" transform="translate(-71.39 -1126.588)" fill="#00498e"/>
      <path id="Path_61" data-name="Path 61" d="M148.625,1159.575a1.524,1.524,0,0,1,.016-3.048,1.524,1.524,0,1,1-.016,3.048m1.315-1.525a1.31,1.31,0,1,0-2.62.008,1.31,1.31,0,1,0,2.62-.008" transform="translate(-48.869 -1111.037)" fill="#0b408c"/>
      <path id="Path_62" data-name="Path 62" d="M148.986,1158.365a.435.435,0,0,1-.534-.138c-.081-.11-.191-.194-.275-.3a.3.3,0,0,0-.356-.135c-.132.057-.04.2-.062.3a.567.567,0,0,0,0,.135c.005.108-.019.172-.148.172s-.148-.068-.148-.172c0-.42.005-.838,0-1.261,0-.154.073-.194.21-.186.213.014.428.019.644.038a.407.407,0,0,1,.38.294.38.38,0,0,1-.148.456c-.229.135-.116.226,0,.345.143.143.278.289.434.453m-1.229-1.121c.011.17-.049.339.183.31.2-.027.442,0,.437-.3,0-.253-.21-.21-.372-.234-.229-.038-.278.078-.248.226" transform="translate(-48.27 -1110.609)" fill="#0b408c"/>
    </g>
  </g>
</svg>
