<svg xmlns="http://www.w3.org/2000/svg" xmlns:xlink="http://www.w3.org/1999/xlink" width="143.303" height="56.943" viewBox="0 0 143.303 56.943">
  <defs>
    <clipPath id="clip-path">
      <rect id="Rectangle_59" data-name="Rectangle 59" width="143.303" height="56.943" fill="none"/>
    </clipPath>
  </defs>
  <g id="Group_63" data-name="Group 63" transform="translate(0)">
    <g id="Group_60" data-name="Group 60" transform="translate(0 0)">
      <g id="Group_59" data-name="Group 59" clip-path="url(#clip-path)">
        <path id="Path_159" data-name="Path 159" d="M281.409,1163.183a10.132,10.132,0,0,1,1.767-5.643c.872-1.325,1.9-2.543,2.675-3.938a9.647,9.647,0,0,0,1.438-4.481,11.559,11.559,0,0,0-.49-4.445c-.049-.125-.089-.283.033-.382.148-.118.319-.056.48.007a8.033,8.033,0,0,1,3.07,2.043,8.469,8.469,0,0,1,2.349,4.807,10.427,10.427,0,0,1-1.382,6.771,22.363,22.363,0,0,1-3.662,4.326,11.669,11.669,0,0,0-2.217,2.727,3.991,3.991,0,0,0-.49,3.159c.082.25-.178.448-.457.345a4.152,4.152,0,0,1-2.182-1.806,5.55,5.55,0,0,1-.931-3.491" transform="translate(-271.384 -1138.648)" fill="#d7002d"/>
        <path id="Path_160" data-name="Path 160" d="M298.476,1148.1a6.28,6.28,0,0,1,5.988,3.734,7.633,7.633,0,0,1,.638,3.668,7.327,7.327,0,0,1-1.569,4.267,5.452,5.452,0,0,1-2.208,1.655,6.688,6.688,0,0,1-3.106.628,6.4,6.4,0,0,1-5.761-3.718,7.223,7.223,0,0,1-.714-3.737,6.54,6.54,0,0,1,4.915-6.288,8.12,8.12,0,0,1,1.816-.21m-3.4,6.975a5.63,5.63,0,0,0,.54,2.524,2.973,2.973,0,0,0,2.869,1.615,2.9,2.9,0,0,0,2.8-1.73,5.886,5.886,0,0,0,.168-4.537,2.74,2.74,0,0,0-1.2-1.563,3.588,3.588,0,0,0-2.744-.4,2.97,2.97,0,0,0-1.875,1.421,5.4,5.4,0,0,0-.549,2.668" transform="translate(-247.768 -1129.771)" fill="#080709"/>
        <path id="Path_161" data-name="Path 161" d="M310.46,1157.862a4.548,4.548,0,0,0-.556-1.037.453.453,0,0,0-.484-.181,4.267,4.267,0,0,1-1.23-.01.365.365,0,0,0-.477.3c-.214.142-.125.362-.128.546-.007,1.1,0,2.2,0,3.31,0,.408-.122.605-.586.583a17.029,17.029,0,0,0-2.389.02c-.029-.033-.053-.066-.079-.1-.013-.224-.043-.45-.046-.677q0-5.671,0-11.342c0-.231-.017-.464,0-.691s.128-.362.418-.355c1.1.02,2.2.006,3.31.016,1.388.007,2.78.033,4.169.05.2.033.392.065.582.095.056.2.2.208.362.165l.345.105c-.013.118.069.151.158.194a3.049,3.049,0,0,1,1.6,1.774,6.845,6.845,0,0,1,.2,2.9.659.659,0,0,1-.072.214,3.648,3.648,0,0,1-2.158,2.155c-.339.128-.323.362-.184.585.892,1.421,1.684,2.9,2.507,4.36.069.115.194.2.122.358-.082.188-.253.139-.4.139-.813,0-1.625-.017-2.438.01a.765.765,0,0,1-.727-.379c-.125-.194-.2-.411-.332-.6-.273-.395-.378-.889-.763-1.211a.092.092,0,0,0-.023-.072c.026-.161-.072-.243-.2-.3.01-.25-.224-.385-.283-.6.053-.194-.069-.267-.217-.326m-.895-7.215v.016c-.487,0-.98,0-1.467,0-.224,0-.421.036-.421.3q0,1.446.026,2.892c0,.223.141.345.391.342.855-.013,1.721.056,2.57-.029,1.171-.112,1.764-.415,1.846-1.655a1.623,1.623,0,0,0-1.7-1.869h-1.24" transform="translate(-218.537 -1129.484)" fill="#080709"/>
        <path id="Path_162" data-name="Path 162" d="M286.461,1155.3a1.232,1.232,0,0,1,.105-.089,13.535,13.535,0,0,0,3.053-3.952,5.056,5.056,0,0,0,.665-1.625l.053-.224a.734.734,0,0,0,.217-.7l.049-.221c.217-.184.184-.427.168-.671.007-.086.01-.168.013-.254.086-.286.237-.424.533-.227.016.026.039.05.059.076a.893.893,0,0,0,.418.467l.076.122c.23.379.464.757.694,1.135a.244.244,0,0,0,.03.066,1.249,1.249,0,0,0,.049.214,7.684,7.684,0,0,1,.675,2.678,9.01,9.01,0,0,1-.724,3.912l-.089.2q-.6.819-1.191,1.635l-.283.293c-.115.063-.257.1-.27.263a.162.162,0,0,0-.039.043.418.418,0,0,0-.352.29l-.053.056a2.674,2.674,0,0,0-.859.684l-.125.066a8.809,8.809,0,0,0-1.639,1.109l-.1.086a.369.369,0,0,0-.342.214.893.893,0,0,1-.125.059.241.241,0,0,0-.253.211l-.059.046a1.621,1.621,0,0,0-.865.7l-.046.039a1.85,1.85,0,0,0-.76,1.339c-.01.135.056.309-.089.381s-.283-.053-.408-.138a3.675,3.675,0,0,1-1.431-2.119,3.286,3.286,0,0,1,.069-2.073,8.093,8.093,0,0,1,1.941-2.8,11.7,11.7,0,0,0,1.237-1.286" transform="translate(-267.56 -1131.754)" fill="#558b2a"/>
        <path id="Path_163" data-name="Path 163" d="M286.047,1148.108a6.17,6.17,0,0,1-1.293,3.494c-.477.743-.987,1.467-1.481,2.2a2.358,2.358,0,0,0-.375.879c-.069.395-.3.451-.605.178a3.349,3.349,0,0,1-.747-4.126c.424-.852,1-1.6,1.458-2.425a3.519,3.519,0,0,0,.378-2.862c-.043-.148-.2-.319-.04-.47s.382-.056.559.02a3.311,3.311,0,0,1,2.145,3.113" transform="translate(-271.988 -1137.129)" fill="#0087c8"/>
        <path id="Path_164" data-name="Path 164" d="M293.612,1148.14a8.258,8.258,0,0,1,4.962,1.576,4.954,4.954,0,0,1,.642.589c.2.2.151.362-.076.52-.51.362-1,.737-1.5,1.109a.618.618,0,0,1-.921-.059,4.333,4.333,0,0,0-3.54-1.243,2.025,2.025,0,0,0-1.237.641c-.668.717-.322,1.648.714,1.948,1.092.313,2.234.375,3.336.635a4.485,4.485,0,0,1,3.149,1.9,2.756,2.756,0,0,1,.365,1.267,4.663,4.663,0,0,1-.681,2.79,4.082,4.082,0,0,1-2.237,1.625,9.083,9.083,0,0,1-3.553.49,7.9,7.9,0,0,1-5.106-2.155c-.368-.346-.375-.448.049-.727.582-.378,1.188-.718,1.793-1.063a.546.546,0,0,1,.674.115,6.052,6.052,0,0,0,1.6,1.007,2.861,2.861,0,0,0,1.1.283,5.466,5.466,0,0,0,2.257-.211,1.8,1.8,0,0,0,1.109-1.342,1.154,1.154,0,0,0-.6-.964,4.486,4.486,0,0,0-1.671-.457,14.109,14.109,0,0,1-3.879-.869,3.11,3.11,0,0,1-1.9-2.836,3.912,3.912,0,0,1,1.458-3.428,4.56,4.56,0,0,1,2.033-.918,5.043,5.043,0,0,1,1.668-.22" transform="translate(-257.091 -1129.745)" fill="#080709"/>
        <path id="Path_165" data-name="Path 165" d="M307.169,1150.017a8.941,8.941,0,0,0,.75,1.135c.118.22.194.319-.132.454-.589.253-1.142.595-1.714.892a.466.466,0,0,1-.717-.2,2.988,2.988,0,0,0-3.981-1.24,3.066,3.066,0,0,0-1.635,1.925,5.884,5.884,0,0,0,.191,4.428,3.082,3.082,0,0,0,2.82,1.922,2.92,2.92,0,0,0,2.359-1.139c.6-.694.579-.7,1.382-.293.375.194.77.349,1.152.533.286.138.526.24.243.661a6.348,6.348,0,0,1-3.451,2.609,5.536,5.536,0,0,1-2.583.178,6.249,6.249,0,0,1-5.3-4.82,7.95,7.95,0,0,1,.747-6,5.562,5.562,0,0,1,2.885-2.481,6.79,6.79,0,0,1,3.313-.418,5.118,5.118,0,0,1,2.747,1.105c.3.253.609.5.918.74Z" transform="translate(-237.325 -1129.746)" fill="#080709"/>
        <path id="Path_166" data-name="Path 166" d="M311.233,1161.3c-.306,0-.612,0-.918,0-.536.01-.707-.112-.832-.629a8.015,8.015,0,0,0-.428-1.211.436.436,0,0,0-.461-.293c-1.379.013-2.76.023-4.139,0-.392-.007-.536.187-.638.507-.138.431-.3.859-.454,1.286a.517.517,0,0,1-.576.345c-.783-.01-1.566-.013-2.346,0-.3,0-.4-.128-.345-.382a8.1,8.1,0,0,1,.306-.957c.546-1.468,1.105-2.925,1.652-4.4q1.115-2.976,2.208-5.965a5.529,5.529,0,0,0,.253-.734c.1-.513.388-.658.885-.628.6.043,1.194.013,1.8.01.928,0,.938-.01,1.247.836.553,1.51,1.122,3.014,1.721,4.5.556,1.392,1.04,2.81,1.566,4.208.369.977.757,1.948,1.132,2.916.141.358.013.559-.385.579-.415.013-.829,0-1.244,0m-4.79-4.445v.01c.428,0,.859,0,1.286.006.237,0,.5-.066.411-.342-.174-.516-.319-1.043-.48-1.562-.316-1.03-.7-2.037-.918-3.1-.033-.155-.069-.316-.257-.332-.224-.013-.207.178-.25.316-.467,1.5-.872,3.017-1.392,4.507-.109.3-.03.51.355.5.415-.013.829,0,1.244,0" transform="translate(-228.624 -1129.45)" fill="#080709"/>
      </g>
    </g>
    <g id="Group_62" data-name="Group 62" transform="translate(34.382 37.261)">
      <g id="Group_61" data-name="Group 61">
        <path id="Path_167" data-name="Path 167" d="M296.991,1161.727l2.372.75a5.322,5.322,0,0,1-1.813,2.948,5.713,5.713,0,0,1-7.186-.687,6.306,6.306,0,0,1-1.553-4.508,6.621,6.621,0,0,1,1.56-4.7,5.363,5.363,0,0,1,4.109-1.675,5.037,5.037,0,0,1,3.609,1.313,4.789,4.789,0,0,1,1.24,2.231l-2.422.579a2.5,2.5,0,0,0-2.553-2.03,2.74,2.74,0,0,0-2.185.968,4.723,4.723,0,0,0-.839,3.129,5.068,5.068,0,0,0,.826,3.273,2.689,2.689,0,0,0,2.148.977,2.457,2.457,0,0,0,1.678-.622A3.61,3.61,0,0,0,296.991,1161.727Z" transform="translate(-288.812 -1153.856)" fill="#1a1818"/>
        <path id="Path_168" data-name="Path 168" d="M304.44,1166.034h-2.662l-1.06-2.754h-4.843l-1,2.754h-2.593L297,1153.919h2.586Zm-4.5-4.793-1.671-4.495-1.635,4.495Z" transform="translate(-280.863 -1153.712)" fill="#1a1818"/>
        <path id="Path_169" data-name="Path 169" d="M296.375,1166.034v-12.114h5.149a8.821,8.821,0,0,1,2.82.326,2.794,2.794,0,0,1,1.412,1.161,3.49,3.49,0,0,1,.53,1.908,3.233,3.233,0,0,1-.8,2.25,3.838,3.838,0,0,1-2.4,1.122,5.634,5.634,0,0,1,1.306,1.017,13.754,13.754,0,0,1,1.395,1.964l1.481,2.365h-2.928l-1.767-2.639a17.948,17.948,0,0,0-1.29-1.779,1.934,1.934,0,0,0-.734-.5,4.153,4.153,0,0,0-1.234-.135h-.5v5.057Zm2.445-6.991h1.81a9.173,9.173,0,0,0,2.2-.148,1.31,1.31,0,0,0,.688-.513,1.58,1.58,0,0,0,.25-.908,1.453,1.453,0,0,0-.329-.987,1.512,1.512,0,0,0-.921-.477c-.2-.026-.793-.039-1.783-.039H298.82Z" transform="translate(-271.491 -1153.712)" fill="#1a1818"/>
        <path id="Path_170" data-name="Path 170" d="M300.09,1153.919h4.843a13.6,13.6,0,0,1,2.142.122,3.03,3.03,0,0,1,2.195,1.51,2.713,2.713,0,0,1,.372,1.415,2.868,2.868,0,0,1-1.7,2.629,3.2,3.2,0,0,1,1.7,1.1,2.92,2.92,0,0,1,.6,1.83,3.629,3.629,0,0,1-.382,1.605,3.3,3.3,0,0,1-1.053,1.25,3.49,3.49,0,0,1-1.639.573c-.408.043-1.392.072-2.951.082H300.09Zm2.445,2.017v2.8h1.6c.954,0,1.546-.01,1.777-.04a1.653,1.653,0,0,0,.99-.434,1.294,1.294,0,0,0,.359-.948,1.34,1.34,0,0,0-.309-.915,1.385,1.385,0,0,0-.921-.421q-.365-.044-2.092-.043Zm0,4.817v3.24H304.8a11.649,11.649,0,0,0,1.678-.072,1.522,1.522,0,0,0,.888-.487,1.473,1.473,0,0,0,.345-1.026,1.581,1.581,0,0,0-.267-.927,1.521,1.521,0,0,0-.763-.556,8.348,8.348,0,0,0-2.168-.171Z" transform="translate(-262.984 -1153.712)" fill="#1a1818"/>
        <path id="Path_171" data-name="Path 171" d="M315.585,1166.034h-2.662l-1.056-2.754h-4.843l-1,2.754h-2.6l4.718-12.114h2.589Zm-4.5-4.793-1.668-4.495-1.635,4.495Z" transform="translate(-255.339 -1153.712)" fill="#1a1818"/>
        <path id="Path_172" data-name="Path 172" d="M307.507,1166.034v-12.114h3.662l2.2,8.262,2.175-8.262h3.668v12.114h-2.27V1156.5l-2.405,9.535h-2.359l-2.4-9.535v9.535Z" transform="translate(-245.998 -1153.712)" fill="#1a1818"/>
        <path id="Path_173" data-name="Path 173" d="M311.78,1166.034v-12.114h2.445v12.114Z" transform="translate(-236.212 -1153.712)" fill="#1a1818"/>
        <path id="Path_174" data-name="Path 174" d="M313.229,1153.919H317.7a8.732,8.732,0,0,1,2.306.23,4.045,4.045,0,0,1,1.826,1.115,5.343,5.343,0,0,1,1.158,1.961,9.017,9.017,0,0,1,.395,2.869,7.9,7.9,0,0,1-.372,2.576,5.34,5.34,0,0,1-1.3,2.139,4.275,4.275,0,0,1-1.718.967,7.43,7.43,0,0,1-2.168.256h-4.6Zm2.448,2.05v8.024H317.5a6.849,6.849,0,0,0,1.48-.115,2.276,2.276,0,0,0,.987-.5,2.6,2.6,0,0,0,.638-1.171,7.928,7.928,0,0,0,.25-2.221,7.234,7.234,0,0,0-.25-2.155,2.737,2.737,0,0,0-.694-1.172,2.3,2.3,0,0,0-1.132-.572,10.9,10.9,0,0,0-2.007-.115Z" transform="translate(-232.893 -1153.712)" fill="#1a1818"/>
        <path id="Path_175" data-name="Path 175" d="M316.947,1166.034v-12.114h8.982v2.05h-6.538v2.685h6.083v2.04h-6.083v3.3h6.771v2.04Z" transform="translate(-224.378 -1153.712)" fill="#1a1818"/>
      </g>
    </g>
  </g>
</svg>
