<svg id="Group_58" data-name="Group 58" xmlns="http://www.w3.org/2000/svg" width="132.681" height="28.223" viewBox="0 0 132.681 28.223">
  <g id="Group_53" data-name="Group 53" transform="translate(0 5.211)">
    <path id="Path_151" data-name="Path 151" d="M406.257,1170.215l-6.379-10.411-3.006,4.278v6.132h-3.091v-22.626h3.091V1159.9l8.4-12.308h3.442l-6.765,9.806,7.727,12.819Z" transform="translate(-393.781 -1147.589)" fill="#0b2678"/>
  </g>
  <g id="Group_54" data-name="Group 54" transform="translate(18.219 5.211)">
    <path id="Path_152" data-name="Path 152" d="M401.967,1150.369v6.286h7.473v2.623h-7.473v8.156H412.22v2.78H398.879v-22.626h13.509v2.78Z" transform="translate(-398.879 -1147.589)" fill="#0b2678"/>
  </g>
  <g id="Group_55" data-name="Group 55" transform="translate(33.161 5.211)">
    <path id="Path_153" data-name="Path 153" d="M422.1,1170.215l-2.688-14.535-4.942,14.839H413.7l-5.082-14.839-2.623,14.535H403.06l4.231-22.626H408.7l5.389,16.51,4.971-16.51h1.39l4.585,22.626Z" transform="translate(-403.06 -1147.589)" fill="#0b2678"/>
  </g>
  <g id="Group_56" data-name="Group 56" transform="translate(55.34 4.904)">
    <path id="Path_154" data-name="Path 154" d="M424.365,1170.436l-1.558-4.771h-8.416l-1.669,4.771h-3.456l9.185-22.933h.818l8.524,22.933Zm-5.65-17-3.506,9.96h6.719Z" transform="translate(-409.266 -1147.503)" fill="#0b2678"/>
    <path id="Path_155" data-name="Path 155" d="M418.2,1161.613v8.713h-3.088V1147.7q3.506-.155,4.231-.154,9.853,0,9.853,6.594,0,7.628-8.71,7.63C420.137,1161.77,419.379,1161.716,418.2,1161.613Zm0-11.133v8.355c1.308.1,2,.154,2.073.154q5.741,0,5.743-4.524,0-4.139-6.133-4.139A12.947,12.947,0,0,0,418.2,1150.48Z" transform="translate(-394.209 -1147.392)" fill="#0b2678"/>
  </g>
  <g id="Group_57" data-name="Group 57" transform="translate(92.819 4.811)">
    <path id="Path_156" data-name="Path 156" d="M435.274,1148.7l-1.036,2.638a8.006,8.006,0,0,0-4.664-1.079,5.567,5.567,0,0,0-4.778,2.562,11.253,11.253,0,0,0-1.8,6.611,9.978,9.978,0,0,0,1.848,6.261,6.173,6.173,0,0,0,9.66.147l1.694,2.362a9.373,9.373,0,0,1-6.915,2.673,8.444,8.444,0,0,1-6.98-3.2,13.108,13.108,0,0,1-2.548-8.431,12.928,12.928,0,0,1,2.72-8.417,8.63,8.63,0,0,1,7.023-3.352A11.464,11.464,0,0,1,435.274,1148.7Z" transform="translate(-419.753 -1147.467)" fill="#0b2678"/>
    <path id="Path_157" data-name="Path 157" d="M425.046,1159a13.35,13.35,0,0,1,2.462-8.216,7.855,7.855,0,0,1,6.651-3.305,8.813,8.813,0,0,1,7.216,3.041q2.509,3.044,2.509,8.481,0,5.57-2.516,8.731a8.68,8.68,0,0,1-7.208,3.159,7.813,7.813,0,0,1-6.7-3.338A14.212,14.212,0,0,1,425.046,1159Zm3.241,0a12.644,12.644,0,0,0,1.537,6.5,4.8,4.8,0,0,0,4.335,2.612,5.494,5.494,0,0,0,4.821-2.395,11.663,11.663,0,0,0,1.662-6.715q0-8.744-6.483-8.742a4.863,4.863,0,0,0-4.374,2.348A11.8,11.8,0,0,0,428.288,1159Z" transform="translate(-406.13 -1147.477)" fill="#0b2678"/>
  </g>
  <path id="Path_158" data-name="Path 158" d="M432.2,1152a2.9,2.9,0,0,0,2.359-1.2,2.925,2.925,0,0,0,0-3.459,2.842,2.842,0,0,0-1.433-1.054,2.912,2.912,0,0,0-2.655.418,2.906,2.906,0,0,0-.636.64,2.845,2.845,0,0,0-.418.8,2.919,2.919,0,0,0,0,1.847,2.875,2.875,0,0,0,.418.8,2.964,2.964,0,0,0,1.44,1.054,2.844,2.844,0,0,0,.926.154m0-.35a2.7,2.7,0,0,1-.818-.133,2.585,2.585,0,0,1-.711-.368,2.664,2.664,0,0,1-.558-.554,2.639,2.639,0,0,1-.493-1.529,2.638,2.638,0,0,1,.493-1.53,2.575,2.575,0,0,1,.558-.557,2.62,2.62,0,0,1,2.344-.369,2.732,2.732,0,0,1,.708.369,2.464,2.464,0,0,1,.55.557,2.576,2.576,0,0,1,.364.711,2.6,2.6,0,0,1,0,1.637,2.633,2.633,0,0,1-.364.711,2.545,2.545,0,0,1-.55.554,2.618,2.618,0,0,1-.708.368,2.67,2.67,0,0,1-.815.133m-1.011-.944h.382v-2.92h.586a1.561,1.561,0,0,1,.483.06.778.778,0,0,1,.3.164.532.532,0,0,1,.15.225.716.716,0,0,1,.043.247.685.685,0,0,1-.039.232.534.534,0,0,1-.139.222.814.814,0,0,1-.293.165,1.635,1.635,0,0,1-.5.061h-.3l1.151,1.544h.457l-.936-1.237a1.025,1.025,0,0,0,.511-.143.939.939,0,0,0,.343-.347.964.964,0,0,0,.129-.483,1.522,1.522,0,0,0-.028-.275.887.887,0,0,0-.118-.283.918.918,0,0,0-.229-.257,1.105,1.105,0,0,0-.375-.178,2.019,2.019,0,0,0-.554-.072h-1.018Z" transform="translate(-302.445 -1146.131)" fill="#0b2678"/>
</svg>
