<svg xmlns="http://www.w3.org/2000/svg" width="33.013" height="42.967" viewBox="0 0 33.013 42.967">
  <g id="Group_337" data-name="Group 337" transform="translate(-295.961 -716.459)">
    <g id="Component_69_6" data-name="Component 69 – 6" transform="translate(295.961 716.459)">
      <path id="Path_4543" data-name="Path 4543" d="M2753.275,2257.8a16.4,16.4,0,0,1,11.671,4.867,16.679,16.679,0,0,1,0,23.487,16.429,16.429,0,0,1-23.343,0,16.68,16.68,0,0,1,0-23.487A16.4,16.4,0,0,1,2753.275,2257.8Z" transform="translate(-2736.769 -2257.799)" fill="#00955d"/>
      <path id="Polygon_2" data-name="Polygon 2" d="M5.171,0l5.171,7.756H0Z" transform="translate(21.331 42.967) rotate(180)" fill="#00955d"/>
    </g>
    <g id="Group_332" data-name="Group 332" transform="translate(305.343 725.861)">
      <path id="Union_1" data-name="Union 1" d="M0,7.125a7.211,7.211,0,0,1,.047-.817A6.544,6.544,0,0,0,.24,7.561a5.3,5.3,0,0,0,2.844,3.731,8.263,8.263,0,0,0,3.5.764L6.323,11.6l-.005-.007-.006-.009-.039-.059-.005-.008A6.372,6.372,0,0,1,5.035,8.5a1.078,1.078,0,0,0-.514-.89c-.1-.069-.205-.184-.341-.116s-.092.222-.088.339a7.391,7.391,0,0,0,.631,2.779c.054.122.173.236.046.378A4.79,4.79,0,0,1,.98,6.732c-.04-.379.112-.389.385-.366a5.576,5.576,0,0,1,5,3.2c.278.591.525,1.2.816,1.865A8.123,8.123,0,0,1,9.031,8.029a3.2,3.2,0,0,1,1.039-.846,7.122,7.122,0,0,1,2.843-.819c.319-.034.4.057.361.39a4.762,4.762,0,0,1-2.282,3.64A5.894,5.894,0,0,1,9.484,11c-.128-.142-.009-.256.045-.378a7.4,7.4,0,0,0,.631-2.778c0-.117.05-.269-.088-.339s-.239.046-.341.115a1.08,1.08,0,0,0-.514.89,6.363,6.363,0,0,1-1.233,3.017l-.005.008-.039.059-.006.009-.005.007-.259.459a8.624,8.624,0,0,0,3.1-.584c.081-.032.161-.066.241-.1a5.678,5.678,0,0,0,3.2-5.047,7.247,7.247,0,0,1,.043.787A7.124,7.124,0,0,1,0,7.125Zm5.219-.367c-.17-.122-.128-.27-.089-.421A6.12,6.12,0,0,1,6.9,3.4c.18-.172.3-.139.476.022A6.151,6.151,0,0,1,9.158,6.415a.257.257,0,0,1-.095.323A5.8,5.8,0,0,0,7.133,9.26,5.772,5.772,0,0,0,5.219,6.758Zm-1.272-.7A9.269,9.269,0,0,0,.729,5.486a1.187,1.187,0,0,0-.553.061,7.126,7.126,0,0,1,13.895-.012.631.631,0,0,0-.233-.037,9.186,9.186,0,0,0-3.5.55c-.256.1-.342.046-.414-.2A7.4,7.4,0,0,0,7.434,2.329a.375.375,0,0,0-.6,0A7.428,7.428,0,0,0,4.326,5.88c-.045.158-.088.225-.183.225A.592.592,0,0,1,3.947,6.054Z" transform="translate(0 0)" fill="#fff" stroke="rgba(0,0,0,0)" stroke-miterlimit="10" stroke-width="1"/>
    </g>
  </g>
</svg>
