<svg id="instagram_2_" data-name="instagram (2)" xmlns="http://www.w3.org/2000/svg" width="11.137" height="11.146" viewBox="0 0 11.137 11.146">
  <path id="Path_33" data-name="Path 33" d="M8.7,3.136c-2.281,0-4.447-.2-5.274,1.92A10.962,10.962,0,0,0,3.136,8.7a11.618,11.618,0,0,0,.292,3.646C4.253,14.473,6.437,14.27,8.7,14.27c2.184,0,4.436.227,5.274-1.921A10.945,10.945,0,0,0,14.266,8.7c0-2.175.12-3.579-.935-4.633S10.819,3.136,8.7,3.136Zm-.5,1c4.758-.008,5.363-.536,5.029,6.811-.119,2.6-2.1,2.314-4.53,2.314-4.435,0-4.562-.127-4.562-4.564,0-4.488.352-4.559,4.063-4.562Zm3.47.924a.668.668,0,1,0,.668.668A.668.668,0,0,0,11.673,5.063ZM8.7,5.844A2.859,2.859,0,1,0,11.559,8.7,2.859,2.859,0,0,0,8.7,5.844Zm0,1a1.856,1.856,0,0,1,0,3.711A1.856,1.856,0,0,1,8.7,6.847Z" transform="translate(-3.133 -3.13)" fill="#fff"/>
</svg>
