<svg xmlns="http://www.w3.org/2000/svg" width="204.346" height="168.338" viewBox="0 0 204.346 168.338">
  <g id="Group_391" data-name="Group 391" transform="translate(-1101.18 -199)">
    <g id="Group_78" data-name="Group 78" transform="translate(1101.681 202.629)" opacity="0.26">
      <path id="Union_1" data-name="Union 1" d="M366.319-520.6a81.518,81.518,0,0,1,.529-9.24,73.983,73.983,0,0,0,2.184,14.173c4.584,18.556,14.332,33.442,32.153,42.172,12.408,6.078,25.756,8.31,39.546,8.633l-2.932-5.19-.057-.083-.07-.1c-.148-.222-.292-.446-.436-.664l-.057-.087c-6.982-10.639-12.994-21.356-13.938-34.105a12.189,12.189,0,0,0-5.815-10.063c-1.158-.782-2.32-2.08-3.849-1.306-1.56.79-1.045,2.512-1,3.827a83.548,83.548,0,0,0,7.131,31.411c.616,1.376,1.961,2.669.516,4.277-24.494-6.1-40.315-24.131-42.827-48.087-.45-4.282,1.263-4.4,4.352-4.134,25.367,2.167,45.344,12.544,56.481,36.208,3.146,6.685,5.933,13.531,9.223,21.086,4.915-14.546,10.193-28.016,20.959-38.507,3-4.281,7.371-6.925,11.749-9.564,9.944-5.68,20.855-8.06,32.14-9.254,3.609-.38,4.54.643,4.081,4.409-2.2,18.114-11.422,32.656-25.792,41.144a66.634,66.634,0,0,1-17.066,6.864c-1.451-1.6-.105-2.9.511-4.273a83.652,83.652,0,0,0,7.135-31.41c.048-1.319.563-3.037-1-3.828-1.529-.773-2.7.52-3.854,1.3a12.207,12.207,0,0,0-5.816,10.066c-.939,12.749-6.951,23.467-13.937,34.106l-.057.087c-.144.218-.289.441-.437.664l-.069.1-.057.083-2.932,5.191c12.125-.289,23.9-2.049,35.006-6.6.913-.367,1.822-.747,2.726-1.149,24.079-10.691,35.015-34.739,36.16-57.057a81.927,81.927,0,0,1,.489,8.9,80.54,80.54,0,0,1-80.537,80.538A80.541,80.541,0,0,1,366.319-520.6Zm59-4.145c-1.927-1.376-1.442-3.05-1.005-4.763,3.334-13.025,10.316-23.909,20.042-33.21,2.036-1.948,3.434-1.569,5.383.253a69.538,69.538,0,0,1,20.107,33.844c.407,1.546.358,2.6-1.07,3.657-9.648,7.122-16.682,16.3-21.82,28.5C441.631-508.548,434.99-517.837,425.317-524.749ZM410.942-532.7c-11.661-4.5-23.917-6.234-36.387-6.431-3.2-.052-5.112.018-6.248.686a80.562,80.562,0,0,1,78.554-62.7,80.574,80.574,0,0,1,78.524,62.558,7.129,7.129,0,0,0-2.634-.415,103.843,103.843,0,0,0-39.581,6.217c-2.893,1.088-3.866.52-4.679-2.228-4.828-16.371-15.3-28.88-28.134-39.8-2.481-2.115-4.037-2.39-6.755-.04-12.872,11.107-23.642,23.572-28.378,40.184-.51,1.785-1,2.539-2.066,2.539A6.691,6.691,0,0,1,410.942-532.7Z" transform="translate(-366.319 601.145)" fill="#fff" stroke="rgba(0,0,0,0)" stroke-miterlimit="10" stroke-width="1"/>
    </g>
    <g id="Group_80" data-name="Group 80" transform="translate(1281.123 367.338) rotate(-90)" opacity="0.26">
      <path id="Path_4" data-name="Path 4" d="M6.617,0h4.769l6.59,19.022h-5.3L11.52,15.3H6.457L5.332,19.022H0Zm4.073,11.814L9,5.921,7.233,11.814Z" transform="translate(0 5.223)" fill="#fff"/>
      <path id="Path_5" data-name="Path 5" d="M0,15.135,8.894,4.553H.4V0h14.52V3.884L6.564,14.465h8.518v4.554H0Z" transform="translate(18.644 5.225)" fill="#fff"/>
      <path id="Path_6" data-name="Path 6" d="M9.725,19.261A9.533,9.533,0,0,1,.63,13.193,8.612,8.612,0,0,1,0,10.072,10.244,10.244,0,0,1,.054,9.041q.055-.523.107-.924H13.69a4.1,4.1,0,0,0-.442-1.608,3.456,3.456,0,0,0-2.1-1.728,4.712,4.712,0,0,0-1.367-.2,4.362,4.362,0,0,0-1.111.147,4.29,4.29,0,0,0-1.016.417,3.2,3.2,0,0,0-.817.657,2.411,2.411,0,0,0-.509.9L.885,5.17A8.915,8.915,0,0,1,2.264,3.053a8.109,8.109,0,0,1,1.97-1.634A10.006,10.006,0,0,1,6.738.375,11.374,11.374,0,0,1,9.725,0a9.421,9.421,0,0,1,4.139.87,9.59,9.59,0,0,1,4.889,5.225,8.832,8.832,0,0,1,.642,3.227,10.862,10.862,0,0,1-.616,3.576,9.434,9.434,0,0,1-4.888,5.48,9.373,9.373,0,0,1-4.166.883m.08-4.554a4.227,4.227,0,0,0,2.532-.723,3,3,0,0,0,1.22-2.036H5.786a3,3,0,0,0,1.327,2.036,4.75,4.75,0,0,0,2.691.723" transform="translate(34.744 5.117)" fill="#fff"/>
      <path id="Path_7" data-name="Path 7" d="M0,19.019V0H8.734a5.773,5.773,0,0,1,2.572.575,6.671,6.671,0,0,1,2.023,1.5,7,7,0,0,1,1.324,2.116,6.327,6.327,0,0,1,.483,2.4,6.775,6.775,0,0,1-.723,3.094,6.32,6.32,0,0,1-2.01,2.344l4.02,6.991h-5.9L7.18,13.18H5.225v5.839ZM5.225,8.625H8.52a1.154,1.154,0,0,0,.9-.536,2.4,2.4,0,0,0,.417-1.5A2.164,2.164,0,0,0,9.35,5.075a1.348,1.348,0,0,0-.965-.522H5.225Z" transform="translate(56.362 5.225)" fill="#fff"/>
      <path id="Path_8" data-name="Path 8" d="M13.931,17.574a7.065,7.065,0,0,1-4.689,1.715,9.657,9.657,0,0,1-3.536-.657A8.43,8.43,0,0,1,2.76,16.717,9.261,9.261,0,0,1,.75,13.636,10.8,10.8,0,0,1,0,9.484,9.279,9.279,0,0,1,2.814,2.747,9.756,9.756,0,0,1,5.907.737,9.955,9.955,0,0,1,9.752,0a10.593,10.593,0,0,1,2.464.282,8.766,8.766,0,0,1,2.183.831,8.642,8.642,0,0,1,1.809,1.312,6.689,6.689,0,0,1,1.312,1.728L13.636,7.126a4.366,4.366,0,0,0-1.688-1.808,4.515,4.515,0,0,0-2.383-.684A3.881,3.881,0,0,0,7.85,5.01,4.012,4.012,0,0,0,6.51,6.055a5.014,5.014,0,0,0-.883,1.593A6.119,6.119,0,0,0,5.3,9.672a6.083,6.083,0,0,0,.322,2.036,4.722,4.722,0,0,0,.9,1.567A4,4,0,0,0,7.9,14.292a4.317,4.317,0,0,0,1.8.362,5.343,5.343,0,0,0,4.017-1.875H10.421V9.028h7.823V19.155H13.931Z" transform="translate(73.185 5.089)" fill="#fff"/>
      <path id="Path_9" data-name="Path 9" d="M8.572,19.769a2.877,2.877,0,0,0,1.554-.4,3.215,3.215,0,0,0,1.044-1.058,4.818,4.818,0,0,0,.59-1.513,8.314,8.314,0,0,0,.189-1.8V5.225h5.223V15a13.125,13.125,0,0,1-.509,3.71A8.086,8.086,0,0,1,15.082,21.7a7.477,7.477,0,0,1-2.692,1.983,9.306,9.306,0,0,1-3.817.722,9.083,9.083,0,0,1-3.9-.763A7.46,7.46,0,0,1,2.01,21.592,8.225,8.225,0,0,1,.483,18.605,13.093,13.093,0,0,1,0,15V5.225H5.225V15a8.651,8.651,0,0,0,.186,1.808A4.862,4.862,0,0,0,6,18.336a3.1,3.1,0,0,0,1.031,1.045,2.875,2.875,0,0,0,1.54.388M3.4,0H7.582V3.751H3.4ZM9.564,0h4.178V3.751H9.564Z" transform="translate(93.732)" fill="#fff"/>
      <path id="Path_10" data-name="Path 10" d="M16.181,14.144a4.161,4.161,0,0,1-2.008,3.724,6.953,6.953,0,0,1-2.185.871,11.948,11.948,0,0,1-2.638.281H0V0H11.037a3.761,3.761,0,0,1,1.8.429A4.494,4.494,0,0,1,14.2,1.54a5.1,5.1,0,0,1,.871,1.554,5.312,5.312,0,0,1,.307,1.78,5.153,5.153,0,0,1-.683,2.559,4.281,4.281,0,0,1-2.048,1.835,5.038,5.038,0,0,1,2.584,1.675,4.992,4.992,0,0,1,.951,3.2M5.225,4.447V7.366H8.788a1.719,1.719,0,0,0,.977-.293,1.327,1.327,0,0,0,.442-1.179,1.424,1.424,0,0,0-.376-1.111,1.279,1.279,0,0,0-.883-.335Zm5.652,8.624a1.81,1.81,0,0,0-.373-1.163,1.187,1.187,0,0,0-.965-.47H5.225v3.189H9.35a1.561,1.561,0,0,0,1.086-.4,1.478,1.478,0,0,0,.441-1.153" transform="translate(113.903 5.225)" fill="#fff"/>
      <path id="Path_11" data-name="Path 11" d="M0,19.019V0H8.734a5.773,5.773,0,0,1,2.572.575,6.671,6.671,0,0,1,2.023,1.5,7,7,0,0,1,1.324,2.116,6.327,6.327,0,0,1,.483,2.4,6.775,6.775,0,0,1-.723,3.094,6.319,6.319,0,0,1-2.01,2.344l4.02,6.991H10.528L7.18,13.18H5.225v5.839ZM5.225,8.625H8.52a1.154,1.154,0,0,0,.9-.536,2.4,2.4,0,0,0,.417-1.5A2.163,2.163,0,0,0,9.35,5.075a1.353,1.353,0,0,0-.965-.522H5.225Z" transform="translate(132.388 5.225)" fill="#fff"/>
      <path id="Path_12" data-name="Path 12" d="M9.725,19.261A9.533,9.533,0,0,1,.63,13.193,8.647,8.647,0,0,1,0,10.072,10.251,10.251,0,0,1,.054,9.041c.037-.349.071-.657.109-.924H13.69a4.1,4.1,0,0,0-.442-1.608,3.456,3.456,0,0,0-2.1-1.728,4.71,4.71,0,0,0-1.365-.2,4.325,4.325,0,0,0-2.129.563,3.245,3.245,0,0,0-.817.655,2.427,2.427,0,0,0-.509.9L.885,5.169A8.908,8.908,0,0,1,2.264,3.053a8.145,8.145,0,0,1,1.97-1.635A10.026,10.026,0,0,1,6.738.375,11.318,11.318,0,0,1,9.725,0a9.412,9.412,0,0,1,4.139.87,9.684,9.684,0,0,1,3.029,2.223,9.784,9.784,0,0,1,1.861,3A8.848,8.848,0,0,1,19.4,9.322,10.9,10.9,0,0,1,18.78,12.9a9.43,9.43,0,0,1-4.889,5.48,9.373,9.373,0,0,1-4.166.883m.081-4.554a4.223,4.223,0,0,0,2.531-.723,3,3,0,0,0,1.22-2.037H5.788a3,3,0,0,0,1.326,2.037,4.751,4.751,0,0,0,2.692.723" transform="translate(148.942 5.119)" fill="#fff"/>
    </g>
  </g>
</svg>
