<svg xmlns="http://www.w3.org/2000/svg" xmlns:xlink="http://www.w3.org/1999/xlink" width="230.583" height="179.61" viewBox="0 0 230.583 179.61"><defs><clipPath id="a"><path d="M-910.372,1440.277s-95.894,166.38-103.51,179.575h69.115s7.885-13.738,21.73-37.789c8.468,14.479,20.241,34.582,22.116,37.824h23.063c-9.237-15.878-24.229-41.572-33.687-57.785,10.065-17.475,22.114-38.372,35.731-61.968,4.789,8.3,53.063,91.327,57.956,99.8H-840.9c-2.8-4.848-32.108-55.033-34.917-59.893l-11.519,19.949c2.8,4.851,32.107,55.032,34.918,59.894H-783.3c-.12-.206-90.58-156.31-92.515-159.654-29.405,50.939-48.565,84.4-80.473,139.67h-23.039s87.871-152.482,91.993-159.626Z" transform="translate(1013.882 -1440.277)" fill="none"/></clipPath><linearGradient id="b" x1="5.913" y1="20.344" x2="5.919" y2="20.344" gradientUnits="objectBoundingBox"><stop offset="0" stop-color="#dec699"/><stop offset="1" stop-color="#b8a379"/></linearGradient></defs><g opacity="0.3"><g clip-path="url(#a)"><rect width="288.189" height="291.352" transform="translate(-89.459 97.675) rotate(-47.514)" fill="url(#b)"/></g></g></svg>