<svg xmlns="http://www.w3.org/2000/svg" width="12.562" height="12.623" viewBox="0 0 12.562 12.623">
  <path id="whatsapp_1_" data-name="whatsapp (1)" d="M10.982,1.834A6.256,6.256,0,0,0,1.137,9.381L.25,12.623l3.316-.87a6.248,6.248,0,0,0,2.989.761h0a6.258,6.258,0,0,0,4.424-10.68ZM6.557,11.458h0a5.192,5.192,0,0,1-2.646-.725l-.19-.113-1.968.516.525-1.918-.124-.2a5.2,5.2,0,1,1,4.4,2.436ZM9.409,7.564c-.156-.078-.925-.456-1.068-.508s-.247-.078-.352.078-.4.508-.495.613-.182.117-.339.039A4.269,4.269,0,0,1,5.9,7.01,4.714,4.714,0,0,1,5.03,5.928c-.091-.157,0-.233.069-.319a4.421,4.421,0,0,0,.391-.535A.287.287,0,0,0,5.476,4.8c-.039-.078-.352-.847-.482-1.16s-.256-.263-.352-.268-.2-.005-.3-.005a.574.574,0,0,0-.417.2,1.753,1.753,0,0,0-.547,1.3,3.04,3.04,0,0,0,.638,1.617,6.966,6.966,0,0,0,2.67,2.36,8.946,8.946,0,0,0,.891.329,2.143,2.143,0,0,0,.984.062A1.61,1.61,0,0,0,9.617,8.49a1.306,1.306,0,0,0,.091-.743c-.039-.065-.143-.1-.3-.183Zm0,0" transform="translate(-0.25)" fill="#00955d" fill-rule="evenodd"/>
</svg>
