<svg xmlns="http://www.w3.org/2000/svg" width="37.708" height="37.703" viewBox="0 0 37.708 37.703">
  <g id="play-button" transform="translate(0 -0.002)">
    <path id="Path_200" data-name="Path 200" d="M21.877,15.631l-7.83-5.692a.944.944,0,0,0-1.5.762V22.08a.941.941,0,0,0,.516.842.951.951,0,0,0,.429.1.938.938,0,0,0,.555-.183l7.83-5.687a.937.937,0,0,0,0-1.523Z" transform="translate(3.197 2.486)" fill="#fff"/>
    <path id="Path_201" data-name="Path 201" d="M18.855,0A18.852,18.852,0,1,0,37.708,18.857,18.853,18.853,0,0,0,18.855,0Zm0,34.557a15.705,15.705,0,1,1,15.7-15.7A15.7,15.7,0,0,1,18.855,34.559Z" fill="#fff"/>
  </g>
</svg>
